<?xml version="1.0" encoding="UTF-8" standalone="no"?>
<!-- Created with Inkscape (http://www.inkscape.org/) -->

<svg
   width="227.86501mm"
   height="129.52872mm"
   viewBox="0 0 227.865 129.52872"
   version="1.1"
   id="svg1985"
   inkscape:version="1.2 (dc2aedaf03, 2022-05-15)"
   sodipodi:docname="motor_mounts.svg"
   xmlns:inkscape="http://www.inkscape.org/namespaces/inkscape"
   xmlns:sodipodi="http://sodipodi.sourceforge.net/DTD/sodipodi-0.dtd"
   xmlns="http://www.w3.org/2000/svg"
   xmlns:svg="http://www.w3.org/2000/svg">
  <sodipodi:namedview
     id="namedview1987"
     pagecolor="#ffffff"
     bordercolor="#666666"
     borderopacity="1.0"
     inkscape:showpageshadow="2"
     inkscape:pageopacity="0.0"
     inkscape:pagecheckerboard="0"
     inkscape:deskcolor="#d1d1d1"
     inkscape:document-units="mm"
     showgrid="false"
     inkscape:zoom="0.6213559"
     inkscape:cx="165.76651"
     inkscape:cy="292.10312"
     inkscape:window-width="675"
     inkscape:window-height="740"
     inkscape:window-x="685"
     inkscape:window-y="4"
     inkscape:window-maximized="1"
     inkscape:current-layer="layer1" />
  <defs
     id="defs1982">
    <inkscape:path-effect
       effect="fillet_chamfer"
       id="path-effect6253"
       is_visible="true"
       lpeversion="1"
       nodesatellites_param="F,0,0,1,0,0,0,1 @ F,0,0,1,0,0,0,1 @ F,0,0,1,0,0,0,1 @ F,0,0,1,0,0,0,1 @ F,0,0,1,0,0,0,1 @ F,0,0,1,0,0,0,1 @ F,0,0,1,0,0,0,1 @ F,0,0,1,0,0,0,1 @ F,0,1,1,0,10,0,1 @ F,0,1,1,0,10,0,1 @ F,0,1,1,0,10,0,1 @ F,0,1,1,0,10,0,1"
       unit="mm"
       method="auto"
       mode="F"
       radius="10"
       chamfer_steps="1"
       flexible="false"
       use_knot_distance="true"
       apply_no_radius="true"
       apply_with_radius="true"
       only_selected="true"
       hide_knots="false" />
    <inkscape:path-effect
       effect="fillet_chamfer"
       id="path-effect53514"
       is_visible="true"
       lpeversion="1"
       nodesatellites_param="F,0,0,1,0,0,0,1 @ F,0,0,1,0,0,0,1 @ F,0,0,1,0,0,0,1 @ F,0,0,1,0,0,0,1 @ F,0,0,1,0,0,0,1 @ F,0,0,1,0,0,0,1 @ F,0,0,1,0,0,0,1 @ F,0,0,1,0,0,0,1 @ F,0,1,1,0,10,0,1 @ F,0,1,1,0,10,0,1 @ F,0,1,1,0,10,0,1 @ F,0,1,1,0,10,0,1"
       unit="mm"
       method="auto"
       mode="F"
       radius="10"
       chamfer_steps="1"
       flexible="false"
       use_knot_distance="true"
       apply_no_radius="true"
       apply_with_radius="true"
       only_selected="true"
       hide_knots="false" />
  </defs>
  <g
     inkscape:label="Layer 1"
     inkscape:groupmode="layer"
     id="layer1"
     transform="translate(-123.36434,-131.02796)">
    <g
       id="g2698"
       inkscape:label="outlines"
       style="vector-effect:non-scaling-stroke;-inkscape-stroke:hairline;stroke-width:0.26458333;stroke-dasharray:none">
      <path
         d="m 215.83254,257.4246 v -6 h 10 v 6 h 10 v -6 h 10 v 6 h 23 a 10,10 135 0 0 10,-10 v -40 a 9.9999964,9.9999964 44.99999 0 0 -10,-10 l -62.99962,3e-5 a 10.000004,10.000004 134.99999 0 0 -10,10 v 40 a 9.999985,9.999985 44.999957 0 0 10,9.99998 z"
         id="path6231"
         style="fill:none;stroke:#0000ff;stroke-width:0.26458333;stroke-miterlimit:4;stroke-dasharray:none;vector-effect:non-scaling-stroke;-inkscape-stroke:hairline"
         inkscape:original-d="m 215.83254,257.4246 v -6 h 10 v 6 h 10 v -6 h 10 v 6 h 33 v -60 l -82.99962,3e-5 v 60 z"
         inkscape:path-effect="#path-effect6253"
         sodipodi:nodetypes="ccccccccccccc" />
      <path
         id="path6237"
         style="fill:none;stroke:#0000ff;stroke-width:0.26458333;stroke-miterlimit:4;stroke-dasharray:none;vector-effect:non-scaling-stroke;-inkscape-stroke:hairline"
         d="m 192.56833,206.41993 h -9.9999 l -0.0501,-8.99531 h -52.99986 l -0.0217,14.88746 h -6.00015 v 9.99991 h 6.00015 v 3.35018 h 6.09989 v -1.37098 h 3.40031 v 1.37098 h 4.99969 v 3.30006 h -4.99969 v 1.37097 h -3.40031 v -1.37097 h -6.09989 v 3.34966 h -6.00015 v 9.99991 h 6.00015 l 0.0217,9.11314 h 11.50007 v 6.00015 h 9.99991 v -6.00015 h 3.35018 v -6.09989 h -1.37098 v -3.40031 h 1.37098 v -4.99969 h 3.29954 v 4.99969 h 1.37149 v 3.40031 h -1.37149 v 6.09989 h 3.35018 v 6.00015 h 9.99991 v -6.00015 h 11.50007 l 0.0501,-5.00538 h 9.9999 v -9.99939 h -9.9999 v -5.00021 -3.34967 h -6.09989 v 1.37098 h -3.39979 v -1.37098 h -5.00021 v -3.30006 h 5.00021 v -1.37097 h 3.39979 v 1.37097 h 6.09989 v -3.35018 -5.00021 h 9.9999 z" />
      <path
         id="path6245"
         style="fill:none;stroke:#0000ff;stroke-width:0.26458333;stroke-miterlimit:4;stroke-dasharray:none;vector-effect:non-scaling-stroke;-inkscape-stroke:hairline"
         d="m 345.0969,260.42437 v -23.00014 h 6.00015 v -9.99991 h -6.00015 v -3.35018 h -6.09988 v 1.37149 h -3.40031 v -1.37149 h -4.9997 v -3.30006 h 4.9997 v -1.37098 h 3.40031 v 1.37098 h 6.09988 v -3.34967 h 6.00015 v -9.9999 h -6.00015 v -9.99991 h -52.99986 -9.99991 v 14.9996 h 9.99991 v 5.00021 3.34967 h 6.09988 v -1.37098 h 3.39979 v 1.37098 h 5.00022 v 3.30006 h -5.00022 v 1.37149 h -3.39979 v -1.37149 h -6.09988 v 3.35018 5.00021 h -9.99991 v 15.00012 h 9.99991 v 12.99972 h 11.50007 v -6.00015 h 9.99991 v 6.00015 h 9.9999 v -6.00015 h 9.99991 v 6.00015 z" />
      <path
         d="m 215.83254,131.16026 v 6 h 10 v -6 h 10 v 6 h 10 v -6 h 23 a 10,10 45 0 1 10,10 v 40 a 9.9999964,9.9999964 135.00001 0 1 -10,10 l -62.99962,-3e-5 a 10.000004,10.000004 45.00001 0 1 -10,-10 v -40 a 9.999985,9.999985 135.00004 0 1 10,-9.99998 z"
         id="path53492"
         style="fill:none;stroke:#0000ff;stroke-width:0.26458333;stroke-miterlimit:4;stroke-dasharray:none;vector-effect:non-scaling-stroke;-inkscape-stroke:hairline"
         inkscape:original-d="m 215.83254,131.16026 v 6 h 10 v -6 h 10 v 6 h 10 v -6 h 33 v 60 l -82.99962,-3e-5 v -60 z"
         inkscape:path-effect="#path-effect53514"
         sodipodi:nodetypes="ccccccccccccc" />
      <path
         id="path53498"
         style="fill:none;stroke:#0000ff;stroke-width:0.26458333;stroke-miterlimit:4;stroke-dasharray:none;vector-effect:non-scaling-stroke;-inkscape-stroke:hairline"
         d="m 192.56834,182.1654 h -9.9999 l -0.0501,8.99532 h -52.99986 l -0.0217,-14.88746 h -6.00015 v -9.99991 h 6.00015 v -3.35018 h 6.09989 v 1.37097 h 3.40031 v -1.37097 h 4.99969 v -3.30006 h -4.99969 v -1.37098 h -3.40031 v 1.37098 h -6.09989 v -3.34967 h -6.00015 v -9.9999 h 6.00015 l 0.0217,-9.11314 h 11.50007 v -6.00015 h 9.99991 v 6.00015 h 3.35018 v 6.09988 h -1.37098 v 3.40031 h 1.37098 v 4.9997 h 3.29954 v -4.9997 h 1.37149 v -3.40031 h -1.37149 v -6.09988 h 3.35018 v -6.00015 h 9.99991 v 6.00015 h 11.50007 l 0.0501,5.00538 h 9.9999 v 9.99939 h -9.9999 v 5.00021 3.34966 h -6.09989 v -1.37097 h -3.39979 v 1.37097 h -5.00021 v 3.30006 h 5.00021 v 1.37098 h 3.39979 v -1.37098 h 6.09989 v 3.35018 5.00022 h 9.9999 z" />
      <path
         id="path53506"
         style="fill:none;stroke:#0000ff;stroke-width:0.26458333;stroke-miterlimit:4;stroke-dasharray:none;vector-effect:non-scaling-stroke;-inkscape-stroke:hairline"
         d="m 345.0969,131.16025 v 23.00014 h 6.00015 v 9.99991 h -6.00015 v 3.35018 h -6.09988 v -1.37149 h -3.40031 v 1.37149 h -4.9997 v 3.30006 h 4.9997 v 1.37098 h 3.40031 v -1.37098 h 6.09988 v 3.34967 h 6.00015 v 9.9999 h -6.00015 v 9.99991 h -52.99986 -9.99991 v -14.9996 h 9.99991 v -5.00021 -3.34967 h 6.09988 v 1.37098 h 3.39979 v -1.37098 h 5.00022 v -3.30006 h -5.00022 v -1.37149 h -3.39979 v 1.37149 h -6.09988 v -3.35018 -5.00021 h -9.99991 v -15.00012 h 9.99991 v -12.99972 h 11.50007 v 6.00015 h 9.99991 v -6.00015 h 9.9999 v 6.00015 h 9.99991 v -6.00015 z"
         transform="translate(7.5000003e-7)" />
    </g>
    <g
       id="g2689"
       inkscape:label="holes"
       style="vector-effect:non-scaling-stroke;-inkscape-stroke:hairline;stroke-width:0.26458333;stroke-dasharray:none">
      <path
         d="m 229.18554,254.321 0.026,-0.2056 0.052,-0.2007 0.076,-0.1926 0.1,-0.1816 0.122,-0.1676 0.141,-0.1511 0.16,-0.1321 0.175,-0.111 0.188,-0.0882 0.197,-0.0641 0.203,-0.0388 0.207,-0.013 0.207,0.013 0.203,0.0388 0.197,0.0641 0.188,0.0882 0.175,0.111 0.16,0.1321 0.141,0.1511 0.122,0.1676 0.1,0.1816 0.076,0.1926 0.052,0.2007 0.026,0.2056 v 0.2072 l -0.026,0.2056 -0.052,0.2007 -0.076,0.1926 -0.1,0.1816 -0.122,0.1677 -0.141,0.151 -0.16,0.1321 -0.175,0.111 -0.188,0.0882 -0.197,0.0641 -0.203,0.0388 -0.207,0.013 -0.207,-0.013 -0.203,-0.0388 -0.197,-0.0641 -0.188,-0.0882 -0.175,-0.111 -0.16,-0.1321 -0.141,-0.151 -0.122,-0.1677 -0.1,-0.1816 -0.076,-0.1926 -0.052,-0.2007 -0.026,-0.2056 z"
         id="path6203"
         style="fill:none;stroke:#0000ff;stroke-width:0.26458333;stroke-miterlimit:4;stroke-dasharray:none;vector-effect:non-scaling-stroke;-inkscape-stroke:hairline" />
      <path
         d="m 209.83554,242.8995 0.024,0.1869 0.046,0.1824 0.07,0.17516 0.091,0.16507 0.11,0.1524 0.129,0.13731 0.145,0.12008 0.159,0.10093 0.171,0.0802 0.179,0.0582 0.185,0.0353 0.188,0.0118 h 10 l 0.188,-0.0118 0.185,-0.0353 0.179,-0.0582 0.171,-0.0802 0.159,-0.10093 0.145,-0.12008 0.129,-0.13731 0.11,-0.1524 0.091,-0.16507 0.07,-0.17516 0.046,-0.1824 0.024,-0.1869 v -0.1884 l -0.024,-0.1869 -0.046,-0.1824 -0.07,-0.1752 -0.091,-0.165 -0.11,-0.1524 -0.129,-0.1374 -0.145,-0.12 -0.159,-0.101 -0.171,-0.0802 -0.179,-0.0582 -0.185,-0.0353 -0.188,-0.0118 h -10 l -0.188,0.0118 -0.185,0.0353 -0.179,0.0582 -0.171,0.0802 -0.159,0.101 -0.145,0.12 -0.129,0.1374 -0.11,0.1524 -0.091,0.165 -0.07,0.1752 -0.046,0.1824 -0.024,0.1869 z"
         id="path6205"
         style="fill:none;stroke:#0000ff;stroke-width:0.26458333;stroke-miterlimit:4;stroke-dasharray:none;vector-effect:non-scaling-stroke;-inkscape-stroke:hairline" />
      <path
         d="m 209.83554,211.8995 0.024,0.1869 0.046,0.1824 0.07,0.1752 0.091,0.165 0.11,0.1524 0.129,0.1374 0.145,0.12 0.159,0.101 0.171,0.0802 0.179,0.0582 0.185,0.0353 0.188,0.0118 h 10 l 0.188,-0.0118 0.185,-0.0353 0.179,-0.0582 0.171,-0.0802 0.159,-0.101 0.145,-0.12 0.129,-0.1374 0.11,-0.1524 0.091,-0.165 0.07,-0.1752 0.046,-0.1824 0.024,-0.1869 v -0.1884 l -0.024,-0.1869 -0.046,-0.1824 -0.07,-0.1752 -0.091,-0.165 -0.11,-0.1524 -0.129,-0.1373 -0.145,-0.1201 -0.159,-0.101 -0.171,-0.0802 -0.179,-0.0582 -0.185,-0.0353 -0.188,-0.0118 h -10 l -0.188,0.0118 -0.185,0.0353 -0.179,0.0582 -0.171,0.0802 -0.159,0.101 -0.145,0.1201 -0.129,0.1373 -0.11,0.1524 -0.091,0.165 -0.07,0.1752 -0.046,0.1824 -0.024,0.1869 z"
         id="path6207"
         style="fill:none;stroke:#0000ff;stroke-width:0.26458333;stroke-miterlimit:4;stroke-dasharray:none;vector-effect:non-scaling-stroke;-inkscape-stroke:hairline" />
      <path
         d="m 215.65454,228.0085 0.176,1.3955 0.35,1.3623 0.518,1.3077 0.678,1.2326 0.826,1.1378 0.963,1.0253 1.084,0.8966 1.187,0.7536 1.273,0.5989 1.338,0.4346 1.381,0.2636 1.404,0.0883 h 10 l 1.404,-0.0883 1.381,-0.2636 1.338,-0.4346 1.273,-0.5989 1.187,-0.7536 1.084,-0.8966 0.963,-1.0253 0.826,-1.1378 0.678,-1.2326 0.518,-1.3077 0.35,-1.3623 0.176,-1.3955 v -1.4064 l -0.176,-1.3955 -0.35,-1.3623 -0.518,-1.3077 -0.678,-1.2326 -0.826,-1.1378 -0.963,-1.0253 -1.084,-0.8966 -1.187,-0.7536 -1.273,-0.5989 -1.338,-0.4346 -1.381,-0.2636 -1.404,-0.0883 h -10 l -1.404,0.0883 -1.381,0.2636 -1.338,0.4346 -1.273,0.5989 -1.187,0.7536 -1.084,0.8966 -0.963,1.0253 -0.826,1.1378 -0.678,1.2326 -0.518,1.3077 -0.35,1.3623 -0.176,1.3955 z"
         id="path6209"
         style="fill:none;stroke:#0000ff;stroke-width:0.26458333;stroke-miterlimit:4;stroke-dasharray:none;vector-effect:non-scaling-stroke;-inkscape-stroke:hairline" />
      <path
         d="m 240.83554,211.8995 0.024,0.1869 0.046,0.1824 0.07,0.1752 0.091,0.165 0.11,0.1524 0.129,0.1374 0.145,0.12 0.159,0.101 0.171,0.0802 0.179,0.0582 0.185,0.0353 0.188,0.0118 h 10 l 0.188,-0.0118 0.185,-0.0353 0.179,-0.0582 0.171,-0.0802 0.159,-0.101 0.145,-0.12 0.129,-0.1374 0.11,-0.1524 0.091,-0.165 0.07,-0.1752 0.046,-0.1824 0.024,-0.1869 v -0.1884 l -0.024,-0.1869 -0.046,-0.1824 -0.07,-0.1752 -0.091,-0.165 -0.11,-0.1524 -0.129,-0.1373 -0.145,-0.1201 -0.159,-0.101 -0.171,-0.0802 -0.179,-0.0582 -0.185,-0.0353 -0.188,-0.0118 h -10 l -0.188,0.0118 -0.185,0.0353 -0.179,0.0582 -0.171,0.0802 -0.159,0.101 -0.145,0.1201 -0.129,0.1373 -0.11,0.1524 -0.091,0.165 -0.07,0.1752 -0.046,0.1824 -0.024,0.1869 z"
         id="path6211"
         style="fill:none;stroke:#0000ff;stroke-width:0.26458333;stroke-miterlimit:4;stroke-dasharray:none;vector-effect:non-scaling-stroke;-inkscape-stroke:hairline" />
      <path
         d="m 240.83554,242.8995 0.024,0.1869 0.046,0.1824 0.07,0.17516 0.091,0.16507 0.11,0.1524 0.129,0.13731 0.145,0.12008 0.159,0.10093 0.171,0.0802 0.179,0.0582 0.185,0.0353 0.188,0.0118 h 10 l 0.188,-0.0118 0.185,-0.0353 0.179,-0.0582 0.171,-0.0802 0.159,-0.10093 0.145,-0.12008 0.129,-0.13731 0.11,-0.1524 0.091,-0.16507 0.07,-0.17516 0.046,-0.1824 0.024,-0.1869 v -0.1884 l -0.024,-0.1869 -0.046,-0.1824 -0.07,-0.1752 -0.091,-0.165 -0.11,-0.1524 -0.129,-0.1374 -0.145,-0.12 -0.159,-0.101 -0.171,-0.0802 -0.179,-0.0582 -0.185,-0.0353 -0.188,-0.0118 h -10 l -0.188,0.0118 -0.185,0.0353 -0.179,0.0582 -0.171,0.0802 -0.159,0.101 -0.145,0.12 -0.129,0.1374 -0.11,0.1524 -0.091,0.165 -0.07,0.1752 -0.046,0.1824 -0.024,0.1869 z"
         id="path6213"
         style="fill:none;stroke:#0000ff;stroke-width:0.26458333;stroke-miterlimit:4;stroke-dasharray:none;vector-effect:non-scaling-stroke;-inkscape-stroke:hairline" />
      <path
         d="m 271.83254,214.8053 h 4 v -3 h -4 z"
         id="path6215"
         style="fill:none;stroke:#0000ff;stroke-width:0.26458333;stroke-miterlimit:4;stroke-dasharray:none;vector-effect:non-scaling-stroke;-inkscape-stroke:hairline" />
      <path
         d="m 271.83254,222.8053 h 4 v -3 h -4 z"
         id="path6217"
         style="fill:none;stroke:#0000ff;stroke-width:0.26458333;stroke-miterlimit:4;stroke-dasharray:none;vector-effect:non-scaling-stroke;-inkscape-stroke:hairline" />
      <path
         d="m 264.18554,227.4159 0.026,0.2056 0.052,0.2007 0.076,0.1926 0.1,0.1816 0.122,0.1676 0.141,0.1511 0.16,0.1321 0.175,0.111 0.188,0.0882 0.197,0.0641 0.203,0.0388 0.207,0.013 0.207,-0.013 0.203,-0.0388 0.197,-0.0641 0.188,-0.0882 0.175,-0.111 0.16,-0.1321 0.141,-0.1511 0.122,-0.1676 0.1,-0.1816 0.076,-0.1926 0.052,-0.2007 0.026,-0.2056 v -0.2072 l -0.026,-0.2056 -0.052,-0.2007 -0.076,-0.1926 -0.1,-0.1816 -0.122,-0.1677 -0.141,-0.151 -0.16,-0.1321 -0.175,-0.111 -0.188,-0.0882 -0.197,-0.0641 -0.203,-0.0388 -0.207,-0.013 -0.207,0.013 -0.203,0.0388 -0.197,0.0641 -0.188,0.0882 -0.175,0.111 -0.16,0.1321 -0.141,0.151 -0.122,0.1677 -0.1,0.1816 -0.076,0.1926 -0.052,0.2007 -0.026,0.2056 z"
         id="path6221"
         style="fill:none;stroke:#0000ff;stroke-width:0.26458333;stroke-miterlimit:4;stroke-dasharray:none;vector-effect:non-scaling-stroke;-inkscape-stroke:hairline" />
      <path
         d="m 262.83254,242.3123 h 6 v -10 h -6 z"
         id="path6223"
         style="fill:none;stroke:#0000ff;stroke-width:0.26458333;stroke-miterlimit:4;stroke-dasharray:none;vector-effect:non-scaling-stroke;-inkscape-stroke:hairline" />
      <path
         d="m 262.83254,222.3123 h 6 v -10 h -6 z"
         id="path6225"
         style="fill:none;stroke:#0000ff;stroke-width:0.26458333;stroke-miterlimit:4;stroke-dasharray:none;vector-effect:non-scaling-stroke;-inkscape-stroke:hairline" />
      <path
         d="m 139.50251,217.56309 -0.063,0.499 -0.125,0.486 -0.185,0.467 -0.242,0.44 -0.295,0.407 -0.344,0.366 -0.387,0.32 -0.424,0.269 -0.454,0.214 -0.478,0.155 -0.494,0.094 -0.501,0.032 -0.501,-0.032 -0.494,-0.094 -0.477,-0.155 -0.455,-0.214 -0.424,-0.269 -0.387,-0.32 -0.344,-0.366 -0.295,-0.407 -0.242,-0.44 -0.185,-0.467 -0.125,-0.486 -0.063,-0.499 v -0.502 l 0.063,-0.499 0.125,-0.486 0.185,-0.467 0.242,-0.44 0.295,-0.407 0.344,-0.366 0.387,-0.32 0.424,-0.269 0.455,-0.214 0.477,-0.155 0.494,-0.094 0.501,-0.032 0.501,0.032 0.494,0.094 0.478,0.155 0.454,0.214 0.424,0.269 0.387,0.32 0.344,0.366 0.295,0.407 0.242,0.44 0.185,0.467 0.125,0.486 0.063,0.499 z"
         id="path6235"
         style="fill:none;stroke:#0000ff;stroke-width:0.26458333;stroke-miterlimit:4;stroke-dasharray:none;vector-effect:non-scaling-stroke;-inkscape-stroke:hairline" />
      <rect
         style="fill:none;stroke:#0000ff;stroke-width:0.26458333;stroke-dasharray:none;vector-effect:non-scaling-stroke;-inkscape-stroke:hairline"
         id="rect6239"
         width="15"
         height="15"
         x="202.42441"
         y="-177.51813"
         rx="2"
         ry="2"
         transform="rotate(90)" />
      <path
         d="m 320.24404,257.52786 -0.026,0.2056 -0.052,0.2007 -0.076,0.1926 -0.1,0.1816 -0.122,0.1676 -0.141,0.1511 -0.16,0.1321 -0.175,0.111 -0.188,0.0882 -0.197,0.0641 -0.203,0.0388 -0.207,0.013 -0.207,-0.013 -0.203,-0.0388 -0.197,-0.0641 -0.188,-0.0882 -0.175,-0.111 -0.16,-0.1321 -0.141,-0.1511 -0.122,-0.1676 -0.1,-0.1816 -0.076,-0.1926 -0.052,-0.2007 -0.026,-0.2056 v -0.2072 l 0.026,-0.2056 0.052,-0.2007 0.076,-0.1926 0.1,-0.1816 0.122,-0.1677 0.141,-0.151 0.16,-0.1321 0.175,-0.111 0.188,-0.0882 0.197,-0.0641 0.203,-0.0388 0.207,-0.013 0.207,0.013 0.203,0.0388 0.197,0.0641 0.188,0.0882 0.175,0.111 0.16,0.1321 0.141,0.151 0.122,0.1677 0.1,0.1816 0.076,0.1926 0.052,0.2007 0.026,0.2056 z"
         id="path6243"
         style="fill:none;stroke:#0000ff;stroke-width:0.26458333;stroke-miterlimit:4;stroke-dasharray:none;vector-effect:non-scaling-stroke;-inkscape-stroke:hairline" />
      <path
         d="m 229.18554,134.26386 0.026,0.2056 0.052,0.2007 0.076,0.1926 0.1,0.1816 0.122,0.1676 0.141,0.1511 0.16,0.1321 0.175,0.111 0.188,0.0882 0.197,0.0641 0.203,0.0388 0.207,0.013 0.207,-0.013 0.203,-0.0388 0.197,-0.0641 0.188,-0.0882 0.175,-0.111 0.16,-0.1321 0.141,-0.1511 0.122,-0.1676 0.1,-0.1816 0.076,-0.1926 0.052,-0.2007 0.026,-0.2056 v -0.2072 l -0.026,-0.2056 -0.052,-0.2007 -0.076,-0.1926 -0.1,-0.1816 -0.122,-0.1677 -0.141,-0.151 -0.16,-0.1321 -0.175,-0.111 -0.188,-0.0882 -0.197,-0.0641 -0.203,-0.0388 -0.207,-0.013 -0.207,0.013 -0.203,0.0388 -0.197,0.0641 -0.188,0.0882 -0.175,0.111 -0.16,0.1321 -0.141,0.151 -0.122,0.1677 -0.1,0.1816 -0.076,0.1926 -0.052,0.2007 -0.026,0.2056 z"
         id="path53470"
         style="fill:none;stroke:#0000ff;stroke-width:0.26458333;stroke-miterlimit:4;stroke-dasharray:none;vector-effect:non-scaling-stroke;-inkscape-stroke:hairline" />
      <path
         d="m 209.83554,145.68536 0.024,-0.1869 0.046,-0.1824 0.07,-0.17516 0.091,-0.16507 0.11,-0.1524 0.129,-0.13731 0.145,-0.12008 0.159,-0.10093 0.171,-0.0802 0.179,-0.0582 0.185,-0.0353 0.188,-0.0118 h 10 l 0.188,0.0118 0.185,0.0353 0.179,0.0582 0.171,0.0802 0.159,0.10093 0.145,0.12008 0.129,0.13731 0.11,0.1524 0.091,0.16507 0.07,0.17516 0.046,0.1824 0.024,0.1869 v 0.1884 l -0.024,0.1869 -0.046,0.1824 -0.07,0.1752 -0.091,0.165 -0.11,0.1524 -0.129,0.1374 -0.145,0.12 -0.159,0.101 -0.171,0.0802 -0.179,0.0582 -0.185,0.0353 -0.188,0.0118 h -10 l -0.188,-0.0118 -0.185,-0.0353 -0.179,-0.0582 -0.171,-0.0802 -0.159,-0.101 -0.145,-0.12 -0.129,-0.1374 -0.11,-0.1524 -0.091,-0.165 -0.07,-0.1752 -0.046,-0.1824 -0.024,-0.1869 z"
         id="path53472"
         style="fill:none;stroke:#0000ff;stroke-width:0.26458333;stroke-miterlimit:4;stroke-dasharray:none;vector-effect:non-scaling-stroke;-inkscape-stroke:hairline" />
      <path
         d="m 209.83554,176.68536 0.024,-0.1869 0.046,-0.1824 0.07,-0.1752 0.091,-0.165 0.11,-0.1524 0.129,-0.1374 0.145,-0.12 0.159,-0.101 0.171,-0.0802 0.179,-0.0582 0.185,-0.0353 0.188,-0.0118 h 10 l 0.188,0.0118 0.185,0.0353 0.179,0.0582 0.171,0.0802 0.159,0.101 0.145,0.12 0.129,0.1374 0.11,0.1524 0.091,0.165 0.07,0.1752 0.046,0.1824 0.024,0.1869 v 0.1884 l -0.024,0.1869 -0.046,0.1824 -0.07,0.1752 -0.091,0.165 -0.11,0.1524 -0.129,0.1373 -0.145,0.1201 -0.159,0.101 -0.171,0.0802 -0.179,0.0582 -0.185,0.0353 -0.188,0.0118 h -10 l -0.188,-0.0118 -0.185,-0.0353 -0.179,-0.0582 -0.171,-0.0802 -0.159,-0.101 -0.145,-0.1201 -0.129,-0.1373 -0.11,-0.1524 -0.091,-0.165 -0.07,-0.1752 -0.046,-0.1824 -0.024,-0.1869 z"
         id="path53474"
         style="fill:none;stroke:#0000ff;stroke-width:0.26458333;stroke-miterlimit:4;stroke-dasharray:none;vector-effect:non-scaling-stroke;-inkscape-stroke:hairline" />
      <path
         d="m 215.65454,160.57636 0.176,-1.3955 0.35,-1.3623 0.518,-1.3077 0.678,-1.2326 0.826,-1.1378 0.963,-1.0253 1.084,-0.8966 1.187,-0.7536 1.273,-0.5989 1.338,-0.4346 1.381,-0.2636 1.404,-0.0883 h 10 l 1.404,0.0883 1.381,0.2636 1.338,0.4346 1.273,0.5989 1.187,0.7536 1.084,0.8966 0.963,1.0253 0.826,1.1378 0.678,1.2326 0.518,1.3077 0.35,1.3623 0.176,1.3955 v 1.4064 l -0.176,1.3955 -0.35,1.3623 -0.518,1.3077 -0.678,1.2326 -0.826,1.1378 -0.963,1.0253 -1.084,0.8966 -1.187,0.7536 -1.273,0.5989 -1.338,0.4346 -1.381,0.2636 -1.404,0.0883 h -10 l -1.404,-0.0883 -1.381,-0.2636 -1.338,-0.4346 -1.273,-0.5989 -1.187,-0.7536 -1.084,-0.8966 -0.963,-1.0253 -0.826,-1.1378 -0.678,-1.2326 -0.518,-1.3077 -0.35,-1.3623 -0.176,-1.3955 z"
         id="path53476"
         style="fill:none;stroke:#0000ff;stroke-width:0.26458333;stroke-miterlimit:4;stroke-dasharray:none;vector-effect:non-scaling-stroke;-inkscape-stroke:hairline" />
      <path
         d="m 240.83554,176.68536 0.024,-0.1869 0.046,-0.1824 0.07,-0.1752 0.091,-0.165 0.11,-0.1524 0.129,-0.1374 0.145,-0.12 0.159,-0.101 0.171,-0.0802 0.179,-0.0582 0.185,-0.0353 0.188,-0.0118 h 10 l 0.188,0.0118 0.185,0.0353 0.179,0.0582 0.171,0.0802 0.159,0.101 0.145,0.12 0.129,0.1374 0.11,0.1524 0.091,0.165 0.07,0.1752 0.046,0.1824 0.024,0.1869 v 0.1884 l -0.024,0.1869 -0.046,0.1824 -0.07,0.1752 -0.091,0.165 -0.11,0.1524 -0.129,0.1373 -0.145,0.1201 -0.159,0.101 -0.171,0.0802 -0.179,0.0582 -0.185,0.0353 -0.188,0.0118 h -10 l -0.188,-0.0118 -0.185,-0.0353 -0.179,-0.0582 -0.171,-0.0802 -0.159,-0.101 -0.145,-0.1201 -0.129,-0.1373 -0.11,-0.1524 -0.091,-0.165 -0.07,-0.1752 -0.046,-0.1824 -0.024,-0.1869 z"
         id="path53478"
         style="fill:none;stroke:#0000ff;stroke-width:0.26458333;stroke-miterlimit:4;stroke-dasharray:none;vector-effect:non-scaling-stroke;-inkscape-stroke:hairline" />
      <path
         d="m 240.83554,145.68536 0.024,-0.1869 0.046,-0.1824 0.07,-0.17516 0.091,-0.16507 0.11,-0.1524 0.129,-0.13731 0.145,-0.12008 0.159,-0.10093 0.171,-0.0802 0.179,-0.0582 0.185,-0.0353 0.188,-0.0118 h 10 l 0.188,0.0118 0.185,0.0353 0.179,0.0582 0.171,0.0802 0.159,0.10093 0.145,0.12008 0.129,0.13731 0.11,0.1524 0.091,0.16507 0.07,0.17516 0.046,0.1824 0.024,0.1869 v 0.1884 l -0.024,0.1869 -0.046,0.1824 -0.07,0.1752 -0.091,0.165 -0.11,0.1524 -0.129,0.1374 -0.145,0.12 -0.159,0.101 -0.171,0.0802 -0.179,0.0582 -0.185,0.0353 -0.188,0.0118 h -10 l -0.188,-0.0118 -0.185,-0.0353 -0.179,-0.0582 -0.171,-0.0802 -0.159,-0.101 -0.145,-0.12 -0.129,-0.1374 -0.11,-0.1524 -0.091,-0.165 -0.07,-0.1752 -0.046,-0.1824 -0.024,-0.1869 z"
         id="path53480"
         style="fill:none;stroke:#0000ff;stroke-width:0.26458333;stroke-miterlimit:4;stroke-dasharray:none;vector-effect:non-scaling-stroke;-inkscape-stroke:hairline" />
      <path
         d="m 271.83254,173.77956 h 4 v 3 h -4 z"
         id="path53482"
         style="fill:none;stroke:#0000ff;stroke-width:0.26458333;stroke-miterlimit:4;stroke-dasharray:none;vector-effect:non-scaling-stroke;-inkscape-stroke:hairline" />
      <path
         d="m 271.83254,165.77956 h 4 v 3 h -4 z"
         id="path53484"
         style="fill:none;stroke:#0000ff;stroke-width:0.26458333;stroke-miterlimit:4;stroke-dasharray:none;vector-effect:non-scaling-stroke;-inkscape-stroke:hairline" />
      <path
         d="m 264.18554,161.16896 0.026,-0.2056 0.052,-0.2007 0.076,-0.1926 0.1,-0.1816 0.122,-0.1676 0.141,-0.1511 0.16,-0.1321 0.175,-0.111 0.188,-0.0882 0.197,-0.0641 0.203,-0.0388 0.207,-0.013 0.207,0.013 0.203,0.0388 0.197,0.0641 0.188,0.0882 0.175,0.111 0.16,0.1321 0.141,0.1511 0.122,0.1676 0.1,0.1816 0.076,0.1926 0.052,0.2007 0.026,0.2056 v 0.2072 l -0.026,0.2056 -0.052,0.2007 -0.076,0.1926 -0.1,0.1816 -0.122,0.1677 -0.141,0.151 -0.16,0.1321 -0.175,0.111 -0.188,0.0882 -0.197,0.0641 -0.203,0.0388 -0.207,0.013 -0.207,-0.013 -0.203,-0.0388 -0.197,-0.0641 -0.188,-0.0882 -0.175,-0.111 -0.16,-0.1321 -0.141,-0.151 -0.122,-0.1677 -0.1,-0.1816 -0.076,-0.1926 -0.052,-0.2007 -0.026,-0.2056 z"
         id="path53486"
         style="fill:none;stroke:#0000ff;stroke-width:0.26458333;stroke-miterlimit:4;stroke-dasharray:none;vector-effect:non-scaling-stroke;-inkscape-stroke:hairline" />
      <path
         d="m 262.83254,146.27256 h 6 v 10 h -6 z"
         id="path53488"
         style="fill:none;stroke:#0000ff;stroke-width:0.26458333;stroke-miterlimit:4;stroke-dasharray:none;vector-effect:non-scaling-stroke;-inkscape-stroke:hairline" />
      <path
         d="m 262.83254,166.27256 h 6 v 10 h -6 z"
         id="path53490"
         style="fill:none;stroke:#0000ff;stroke-width:0.26458333;stroke-miterlimit:4;stroke-dasharray:none;vector-effect:non-scaling-stroke;-inkscape-stroke:hairline" />
      <path
         d="m 139.50252,171.02224 -0.063,-0.499 -0.125,-0.486 -0.185,-0.467 -0.242,-0.44 -0.295,-0.407 -0.344,-0.366 -0.387,-0.32 -0.424,-0.269 -0.454,-0.214 -0.478,-0.155 -0.494,-0.094 -0.501,-0.032 -0.501,0.032 -0.494,0.094 -0.477,0.155 -0.455,0.214 -0.424,0.269 -0.387,0.32 -0.344,0.366 -0.295,0.407 -0.242,0.44 -0.185,0.467 -0.125,0.486 -0.063,0.499 v 0.502 l 0.063,0.499 0.125,0.486 0.185,0.467 0.242,0.44 0.295,0.407 0.344,0.366 0.387,0.32 0.424,0.269 0.455,0.214 0.477,0.155 0.494,0.094 0.501,0.032 0.501,-0.032 0.494,-0.094 0.478,-0.155 0.454,-0.214 0.424,-0.269 0.387,-0.32 0.344,-0.366 0.295,-0.407 0.242,-0.44 0.185,-0.467 0.125,-0.486 0.063,-0.499 z"
         id="path53496"
         style="fill:none;stroke:#0000ff;stroke-width:0.26458333;stroke-miterlimit:4;stroke-dasharray:none;vector-effect:non-scaling-stroke;-inkscape-stroke:hairline" />
      <rect
         style="fill:none;stroke:#0000ff;stroke-width:0.26458333;stroke-dasharray:none;vector-effect:non-scaling-stroke;-inkscape-stroke:hairline"
         id="rect53500"
         width="15"
         height="15"
         x="-186.16093"
         y="-177.51814"
         rx="2"
         ry="2"
         transform="matrix(0,-1,-1,0,0,0)" />
      <path
         d="m 320.24404,134.05676 -0.026,-0.2056 -0.052,-0.2007 -0.076,-0.1926 -0.1,-0.1816 -0.122,-0.1676 -0.141,-0.1511 -0.16,-0.1321 -0.175,-0.111 -0.188,-0.0882 -0.197,-0.0641 -0.203,-0.0388 -0.207,-0.013 -0.207,0.013 -0.203,0.0388 -0.197,0.0641 -0.188,0.0882 -0.175,0.111 -0.16,0.1321 -0.141,0.1511 -0.122,0.1676 -0.1,0.1816 -0.076,0.1926 -0.052,0.2007 -0.026,0.2056 v 0.2072 l 0.026,0.2056 0.052,0.2007 0.076,0.1926 0.1,0.1816 0.122,0.1677 0.141,0.151 0.16,0.1321 0.175,0.111 0.188,0.0882 0.197,0.0641 0.203,0.0388 0.207,0.013 0.207,-0.013 0.203,-0.0388 0.197,-0.0641 0.188,-0.0882 0.175,-0.111 0.16,-0.1321 0.141,-0.151 0.122,-0.1677 0.1,-0.1816 0.076,-0.1926 0.052,-0.2007 0.026,-0.2056 z"
         id="path53504"
         style="fill:none;stroke:#0000ff;stroke-width:0.26458333;stroke-miterlimit:4;stroke-dasharray:none;vector-effect:non-scaling-stroke;-inkscape-stroke:hairline" />
    </g>
  </g>
</svg>
