<?xml version="1.0" encoding="UTF-8" standalone="no"?>
<svg
   width="145.97963mm"
   height="142.60898mm"
   viewBox="-1 -125 145.97963 142.60898"
   version="1.1"
   id="svg3141"
   sodipodi:docname="z_axis_assembly_prototype_2.svg"
   inkscape:version="1.1.2 (0a00cf5339, 2022-02-04, custom)"
   xmlns:inkscape="http://www.inkscape.org/namespaces/inkscape"
   xmlns:sodipodi="http://sodipodi.sourceforge.net/DTD/sodipodi-0.dtd"
   xmlns="http://www.w3.org/2000/svg"
   xmlns:svg="http://www.w3.org/2000/svg"
   xmlns:rdf="http://www.w3.org/1999/02/22-rdf-syntax-ns#"
   xmlns:cc="http://creativecommons.org/ns#"
   xmlns:dc="http://purl.org/dc/elements/1.1/">
  <defs
     id="defs3145" />
  <sodipodi:namedview
     id="namedview3143"
     pagecolor="#ffffff"
     bordercolor="#666666"
     borderopacity="1.0"
     inkscape:pageshadow="2"
     inkscape:pageopacity="0.0"
     inkscape:pagecheckerboard="0"
     inkscape:document-units="mm"
     showgrid="false"
     inkscape:zoom="0.52223735"
     inkscape:cx="125.4219"
     inkscape:cy="217.33413"
     inkscape:window-width="1366"
     inkscape:window-height="750"
     inkscape:window-x="0"
     inkscape:window-y="0"
     inkscape:window-maximized="1"
     inkscape:current-layer="svg3141" />
  <title
     id="title3137">OpenSCAD Model</title>
  <metadata
     id="metadata3204">
    <rdf:RDF>
      <cc:Work
         rdf:about="">
        <dc:title>OpenSCAD Model</dc:title>
      </cc:Work>
    </rdf:RDF>
  </metadata>
  <g
     id="g3774"
     transform="translate(2.00644,18.45311)">
    <path
       d="m 48.49356,-142.95311 h -50 v 43 h 50 z"
       id="path3260"
       style="fill:none;stroke:#000000" />
    <path
       d="m 43.49356,-79.953107 v -15.999999 h -15 v 6 h -10 v -6 h -15 v 15.999999 h -6 v 10 h 6 v 16 h 15 v -6 h 10 v 6 h 15 v -16 h 6 v -10 z"
       id="path3256"
       style="fill:none;stroke:#000000" />
    <path
       d="m 3.49356,-30.953107 v 6 h 8.67 v -12.03 h 22.660002 v 12.03 h 8.67 v -6 h 5.999996 v -10 h -5.999996 v -3 h -4.67 v 1.97 h -4 v -1.97 H 28.49356 v -5.999999 h -10 v 5.999999 h -6.33 v 1.97 h -4 v -1.97 h -4.67 v 3 h -6 v 10 z"
       id="path3258"
       style="fill:none;stroke:#000000" />
    <path
       d="m 3.49356,-7.344138 v 6.000001 h 40 v -6.000001 h 6 v -10 h -6 v -3 h -15 v -5.999999 h -10 v 5.999999 h -15 v 3 h -6 v 10 z"
       id="path3254"
       style="fill:none;stroke:#000000" />
    <path
       d="m 132.48309,-55.345126 v -8 h 9.9901 v -14.3139 l -0.0787,-0.623 -0.1561,-0.6082 -0.2312,-0.5838 -0.3025,-0.5502 -0.369,-0.508 -0.4299,-0.4577 -0.4838,-0.4003 -0.5301,-0.3364 -0.5682,-0.2674 -0.5972,-0.194 -0.6167,-0.1177 -0.6267,-0.0394 -0.6267,0.0394 -0.6167,0.1177 -0.5972,0.194 -0.5682,0.2674 -22.4092,13.6184 -1.06,0.6729 -0.967,0.8005 -0.86,0.9155 -0.738,1.0159 -0.605,1.1005 -0.463,1.1676 -0.151,0.5902 h 4.162 v -1.5 h 2.388 l 0.104,-0.1432 0.558,-0.5951 0.629,-0.5203 0.563,-0.3572 0.008,-0.0134 h 6.5 l 3.25,5.6292 -3.25,5.6292 h -6.5 l -0.008,-0.0134 -0.563,-0.3572 -0.629,-0.5203 -0.558,-0.5951 -0.104,-0.1432 h -2.388 v -1.5 h -4.162 l 0.151,0.5902 0.463,1.1676 0.605,1.1005 0.738,1.0159 0.86,0.9155 0.967,0.8005 1.06,0.6729 22.4092,13.6184 0.5682,0.2674 0.5972,0.194 0.6167,0.1177 0.6267,0.0394 0.6267,-0.0394 0.6167,-0.1177 0.5972,-0.194 0.5682,-0.2674 0.5301,-0.3364 0.4838,-0.4003 0.4299,-0.4577 0.369,-0.508 0.3025,-0.5502 0.2312,-0.5838 0.1561,-0.6082 0.0787,-0.623 v -14.3139 z"
       id="path3230"
       style="fill:none;stroke:#000000" />
    <path
       d="m 142.30599,-96.218925 -0.3123,-1.2164 -0.4623,-1.1676 -0.605,-1.100501 -0.7382,-1.015904 -0.8596,-0.9155 -0.9677,-0.8003 -1.0603,-0.673 -22.4085,-13.619 -0.568,-0.267 -0.598,-0.194 -0.616,-0.118 -0.627,-0.039 -0.627,0.039 -0.616,0.118 -0.598,0.194 -0.568,0.267 -0.53,0.337 -0.484,0.4 -0.43,0.458 -0.369,0.508 -0.302,0.55 -0.231,0.584 -0.156,0.608 -0.079,0.623 v 14.314005 h 9.99 v 8 h -9.99 v 14.3139 l 0.079,0.623 0.156,0.6082 0.231,0.5838 0.302,0.5502 0.369,0.508 0.43,0.4577 0.484,0.4003 0.53,0.3364 0.568,0.2674 0.598,0.194 0.616,0.1177 0.627,0.0394 0.627,-0.0394 0.616,-0.1177 0.598,-0.194 0.568,-0.2674 22.4085,-13.6184 1.0603,-0.6729 0.9677,-0.8005 0.8596,-0.9155 0.7382,-1.0159 0.605,-1.1005 0.4623,-1.1676 0.3123,-1.2164 0.1574,-1.2459 v -1.2558 z"
       id="path3218"
       style="fill:none;stroke:#000000" />
    <path
       d="m 142.30599,-26.218925 -0.3123,-1.2164 -0.4623,-1.167601 -0.605,-1.1005 -0.7382,-1.015899 -0.8596,-0.915501 -0.9677,-0.8005 -1.0603,-0.6729 -22.4085,-13.6184 -0.568,-0.2674 -0.598,-0.194 -0.616,-0.1177 -0.627,-0.0394 -0.627,0.0394 -0.616,0.1177 -0.598,0.194 -0.568,0.2674 -0.53,0.3364 -0.484,0.4003 -0.43,0.4577 -0.369,0.508001 -0.302,0.550199 -0.231,0.5838 -0.156,0.6082 -0.079,0.623 v 36.6278505 l 0.079,0.62295 0.156,0.60817 0.231,0.58382 0.302,0.55023 0.369,0.507999 0.43,0.457717 0.484,0.4002385 0.53,0.3364565 0.568,0.267349 0.598,0.194031 0.616,0.11766 0.627,0.039429 0.627,-0.039429 0.616,-0.11766 0.598,-0.194031 0.568,-0.267349 22.4085,-13.6184315 1.0603,-0.6729 0.9677,-0.8005 0.8596,-0.9155 0.7382,-1.0159 0.605,-1.1005 0.4623,-1.1676 0.3123,-1.2164 0.1574,-1.2459 v -1.2558 z"
       id="path3139"
       style="fill:none;stroke:#000000" />
    <path
       id="path944"
       style="fill:none;stroke:#000000;stroke-width:1"
       d="m 58.179579,-129.32449 -0.623217,0.0786 -0.608232,0.15606 -0.583944,0.23099 -0.549837,0.30283 -0.507979,0.36897 -0.457854,0.42994 -0.400492,0.4837 -0.336414,0.5302 -0.267167,0.56792 -0.193786,0.59738 -0.117823,0.6165 -0.03927,0.62683 v 69.999871 l 0.03927,0.626835 h -0.03927 v 9.363768 42.9999582 H 103.49309 V -44.344146 h -0.0393 v -9.363768 l 0.0393,-0.626835 v -69.999871 l -0.0393,-0.62683 -0.11782,-0.6165 -0.19379,-0.59738 -0.26717,-0.56792 -0.33641,-0.5302 -0.40049,-0.4837 -0.45786,-0.42994 -0.50798,-0.36897 -0.54983,-0.30283 -0.58395,-0.23099 -0.608222,-0.15606 -0.623218,-0.0786 z" />
  </g>
  <g
     id="g3764"
     transform="translate(2.00644,18.45311)">
    <path
       d="m 41.40566,-105.55588 -0.1744,-0.022 -0.1703,-0.0437 -0.1635,-0.0647 -0.1541,-0.0847 -0.1422,-0.10335 -0.1282,-0.12034 -0.112,-0.13547 -0.0942,-0.14844 -0.0749,-0.15908 -0.0543,-0.16721 -0.033,-0.1727 -0.011,-0.17546 0.011,-0.17546 0.033,-0.1727 0.0543,-0.16721 0.0749,-0.15908 0.0942,-0.14844 0.112,-0.13547 0.1282,-0.12034 0.1422,-0.10335 0.1541,-0.0847 0.1635,-0.0647 0.1703,-0.0437 0.1744,-0.022 h 0.1758 l 0.1744,0.022 0.1703,0.0437 0.1635,0.0647 0.1541,0.0847 0.1422,0.10335 0.1282,0.12034 0.112,0.13547 0.0942,0.14844 0.0749,0.15908 0.0543,0.16721 0.0329,0.1727 0.0111,0.17546 -0.0111,0.17546 -0.0329,0.1727 -0.0543,0.16721 -0.0749,0.15908 -0.0942,0.14844 -0.112,0.13547 -0.1282,0.12034 -0.1422,0.10335 -0.1541,0.0847 -0.1635,0.0647 -0.1703,0.0437 -0.1744,0.022 z"
       id="path3272"
       style="fill:none;stroke:#000000" />
    <path
       d="m 5.40565,-105.55588 -0.17442,-0.022 -0.17029,-0.0437 -0.16346,-0.0647 -0.15407,-0.0847 -0.14223,-0.10335 -0.12817,-0.12034 -0.11206,-0.13547 -0.09421,-0.14844 -0.07486,-0.15908 -0.05432,-0.16721 -0.03295,-0.1727 -0.01104,-0.17546 0.01104,-0.17546 0.03295,-0.1727 0.05432,-0.16721 0.07486,-0.15908 0.09421,-0.14844 0.11206,-0.13547 0.12817,-0.12034 0.14223,-0.10335 0.15407,-0.0847 0.16346,-0.0647 0.17029,-0.0437 0.17442,-0.022 h 0.17583 l 0.17442,0.022 0.17029,0.0437 0.16347,0.0647 0.15407,0.0847 0.14223,0.10335 0.12817,0.12034 0.11206,0.13547 0.09421,0.14844 0.07486,0.15908 0.05432,0.16721 0.03294,0.1727 0.01105,0.17546 -0.01105,0.17546 -0.03294,0.1727 -0.05432,0.16721 -0.07486,0.15908 -0.09421,0.14844 -0.11206,0.13547 -0.12817,0.12034 -0.14223,0.10335 -0.15407,0.0847 -0.16347,0.0647 -0.17029,0.0437 -0.17442,0.022 z"
       id="path3270"
       style="fill:none;stroke:#000000" />
    <path
       d="m 2.49356,-119.95311 v -10 h 6 v 10 z"
       id="path3268"
       style="fill:none;stroke:#000000" />
    <path
       d="m 38.49356,-119.95311 v -10 h 6 v 10 z"
       id="path3266"
       style="fill:none;stroke:#000000" />
    <path
       d="m 23.39936,-127.95601 -0.1869,-0.0237 -0.1824,-0.0468 -0.1752,-0.0693 -0.165,-0.0908 -0.1524,-0.1107 -0.1373,-0.129 -0.1201,-0.1451 -0.101,-0.1591 -0.0802,-0.1704 -0.0582,-0.1792 -0.0353,-0.185 -0.0118,-0.188 0.0118,-0.188 0.0353,-0.185 0.0582,-0.1792 0.0802,-0.1704 0.101,-0.1591 0.1201,-0.1451 0.1373,-0.129 0.1524,-0.1107 0.165,-0.0907 0.1752,-0.0694 0.1824,-0.0468 0.1869,-0.0236 h 0.1884 l 0.1869,0.0236 0.1824,0.0468 0.1752,0.0694 0.165,0.0907 0.1524,0.1107 0.1373,0.129 0.1201,0.1451 0.101,0.1591 0.0802,0.1704 0.0582,0.1792 0.0353,0.185 0.0118,0.188 -0.0118,0.188 -0.0353,0.185 -0.0582,0.1792 -0.0802,0.1704 -0.101,0.1591 -0.1201,0.1451 -0.1373,0.129 -0.1524,0.1107 -0.165,0.0908 -0.1752,0.0693 -0.1824,0.0468 -0.1869,0.0237 z"
       id="path3264"
       style="fill:none;stroke:#000000" />
    <path
       d="m 18.49356,-132.95311 v -6 h 10 v 6 z"
       id="path3262"
       style="fill:none;stroke:#000000" />
    <path
       d="m 139.47909,-41.219526 -0.0314,0.2492 -0.0625,0.243201 -0.0925,0.2335 -0.121,0.2201 -0.1476,0.2032 -0.1719,0.1831 -0.1935,0.1601 -0.2121,0.1346 -0.2273,0.1069 -0.2388,0.0777 -0.2467,0.047 -0.2507,0.0158 -0.2507,-0.0158 -0.2467,-0.047 -0.2388,-0.0777 -0.2273,-0.1069 -0.2121,-0.1346 -0.1935,-0.1601 -0.1719,-0.1831 -0.1476,-0.2032 -0.121,-0.2201 -0.0925,-0.2335 -0.0625,-0.243201 -0.0314,-0.2492 v -0.251199 l 0.0314,-0.249201 0.0625,-0.2432 0.0925,-0.2336 0.121,-0.2201 0.1476,-0.2032 0.1719,-0.183 0.1935,-0.1601 0.2121,-0.1346 0.2273,-0.107 0.2388,-0.0776 0.2467,-0.047 0.2507,-0.0158 0.2507,0.0158 0.2467,0.047 0.2388,0.0776 0.2273,0.107 0.2121,0.1346 0.1935,0.1601 0.1719,0.183 0.1476,0.2032 0.121,0.2201 0.0925,0.2336 0.0625,0.2432 0.0314,0.249201 z"
       id="path3238"
       style="fill:none;stroke:#000000" />
    <path
       d="m 139.47909,-77.219526 -0.0314,0.2492 -0.0625,0.243201 -0.0925,0.233599 -0.121,0.2201 -0.1476,0.2032 -0.1719,0.183001 -0.1935,0.1601 -0.2121,0.1346 -0.2273,0.107 -0.2388,0.0776 -0.2467,0.047 -0.2507,0.0158 -0.2507,-0.0158 -0.2467,-0.047 -0.2388,-0.0776 -0.2273,-0.107 -0.2121,-0.1346 -0.1935,-0.1601 -0.1719,-0.183001 -0.1476,-0.2032 -0.121,-0.2201 -0.0925,-0.233599 -0.0625,-0.243201 -0.0314,-0.2492 v -0.251199 l 0.0314,-0.249201 0.0625,-0.2432 0.0925,-0.2335 0.121,-0.2201 0.1476,-0.2032 0.1719,-0.1831 0.1935,-0.1601 0.2121,-0.1346 0.2273,-0.1069 0.2388,-0.0777 0.2467,-0.047 0.2507,-0.0158 0.2507,0.0158 0.2467,0.047 0.2388,0.0777 0.2273,0.1069 0.2121,0.1346 0.1935,0.1601 0.1719,0.1831 0.1476,0.2032 0.121,0.2201 0.0925,0.2335 0.0625,0.2432 0.0314,0.249201 z"
       id="path3236"
       style="fill:none;stroke:#000000" />
    <path
       d="m 128.98009,-71.250926 -0.024,0.1869 -0.046,0.1824 -0.07,0.1752 -0.091,0.165 -0.11,0.1524 -0.129,0.1374 -0.145,0.120001 -0.159,0.101 -0.171,0.0802 -0.179,0.0582 -0.185,0.0353 -0.188,0.0118 -0.188,-0.0118 -0.185,-0.0353 -0.179,-0.0582 -0.171,-0.0802 -0.159,-0.101 -0.145,-0.120001 -0.129,-0.1374 -0.11,-0.1524 -0.091,-0.165 -0.07,-0.1752 -0.046,-0.1824 -0.024,-0.1869 v -0.1884 l 0.024,-0.1869 0.046,-0.1824 0.07,-0.1752 0.091,-0.165 0.11,-0.1524 0.129,-0.1373 0.145,-0.1201 0.159,-0.101 0.171,-0.0802 0.179,-0.0582 0.185,-0.0353 0.188,-0.0118 0.188,0.0118 0.185,0.0353 0.179,0.0582 0.171,0.0802 0.159,0.101 0.145,0.1201 0.129,0.1373 0.11,0.1524 0.091,0.165 0.07,0.1752 0.046,0.1824 0.024,0.1869 z"
       id="path3234"
       style="fill:none;stroke:#000000" />
    <path
       d="m 128.98009,-47.250925 -0.024,0.1869 -0.046,0.1824 -0.07,0.175199 -0.091,0.165 -0.11,0.1524 -0.129,0.137301 -0.145,0.1201 -0.159,0.101 -0.171,0.0802 -0.179,0.0582 -0.185,0.0353 -0.188,0.0118 -0.188,-0.0118 -0.185,-0.0353 -0.179,-0.0582 -0.171,-0.0802 -0.159,-0.101 -0.145,-0.1201 -0.129,-0.137301 -0.11,-0.1524 -0.091,-0.165 -0.07,-0.175199 -0.046,-0.1824 -0.024,-0.1869 v -0.188401 l 0.024,-0.1869 0.046,-0.1824 0.07,-0.1752 0.091,-0.164999 0.11,-0.1524 0.129,-0.1374 0.145,-0.12 0.159,-0.101 0.171,-0.0802 0.179,-0.0582 0.185,-0.0353 0.188,-0.0118 0.188,0.0118 0.185,0.0353 0.179,0.0582 0.171,0.0802 0.159,0.101 0.145,0.12 0.129,0.1374 0.11,0.1524 0.091,0.164999 0.07,0.1752 0.046,0.1824 0.024,0.1869 z"
       id="path3232"
       style="fill:none;stroke:#000000" />
    <path
       d="m 137.98309,-90.345126 h -2.3876 l -0.1041,0.1432 -0.5587,0.5951 -0.629,0.5203 -0.5629,0.3572 -0.008,0.0134 h -6.5 l -3.25,-5.6292 3.25,-5.629201 h 6.5 l 0.008,0.0134 0.5629,0.3572 0.629,0.5203 0.5587,0.595101 0.1041,0.1432 h 2.3876 z"
       id="path3228"
       style="fill:none;stroke:#000000" />
    <path
       d="m 123.98009,-82.250926 -0.024,0.1869 -0.046,0.1824 -0.07,0.1752 -0.091,0.165 -0.11,0.1524 -0.129,0.1373 -0.145,0.1201 -0.159,0.101 -0.171,0.0802 -0.179,0.0582 -0.185,0.0353 -0.188,0.0118 -0.188,-0.0118 -0.185,-0.0353 -0.179,-0.0582 -0.171,-0.0802 -0.159,-0.101 -0.145,-0.1201 -0.129,-0.1373 -0.11,-0.1524 -0.091,-0.165 -0.07,-0.1752 -0.046,-0.1824 -0.024,-0.1869 v -0.1884 l 0.024,-0.1869 0.046,-0.1824 0.07,-0.1752 0.091,-0.165 0.11,-0.1524 0.129,-0.1374 0.145,-0.12 0.159,-0.101 0.171,-0.0802 0.179,-0.0582 0.185,-0.0353 0.188,-0.0118 0.188,0.0118 0.185,0.0353 0.179,0.0582 0.171,0.0802 0.159,0.101 0.145,0.12 0.129,0.1374 0.11,0.1524 0.091,0.165 0.07,0.1752 0.046,0.1824 0.024,0.1869 z"
       id="path3226"
       style="fill:none;stroke:#000000" />
    <path
       d="m 123.98009,-106.25113 -0.024,0.187 -0.046,0.183 -0.07,0.175 -0.091,0.165 -0.11,0.152 -0.129,0.137 -0.145,0.121 -0.159,0.1 -0.171,0.081 -0.179,0.058 -0.185,0.035 -0.188,0.012 -0.188,-0.012 -0.185,-0.035 -0.179,-0.058 -0.171,-0.081 -0.159,-0.1 -0.145,-0.121 -0.129,-0.137 -0.11,-0.152 -0.091,-0.165 -0.07,-0.175 -0.046,-0.183 -0.024,-0.187 v -0.188 l 0.024,-0.187 0.046,-0.183 0.07,-0.175 0.091,-0.165 0.11,-0.152 0.129,-0.137 0.145,-0.121 0.159,-0.1 0.171,-0.081 0.179,-0.058 0.185,-0.035 0.188,-0.012 0.188,0.012 0.185,0.035 0.179,0.058 0.171,0.081 0.159,0.1 0.145,0.121 0.129,0.137 0.11,0.152 0.091,0.165 0.07,0.175 0.046,0.183 0.024,0.187 z"
       id="path3224"
       style="fill:none;stroke:#000000" />
    <path
       d="m 114.47909,-112.21913 -0.031,0.249 -0.063,0.243 -0.092,0.234 -0.121,0.22 -0.148,0.203 -0.172,0.183 -0.193,0.16 -0.212,0.135 -0.228,0.107 -0.239,0.077 -0.246,0.047 -0.251,0.016 -0.251,-0.016 -0.246,-0.047 -0.239,-0.077 -0.228,-0.107 -0.212,-0.135 -0.193,-0.16 -0.172,-0.183 -0.148,-0.203 -0.121,-0.22 -0.092,-0.234 -0.063,-0.243 -0.031,-0.249 v -0.252 l 0.031,-0.249 0.063,-0.243 0.092,-0.234 0.121,-0.22 0.148,-0.203 0.172,-0.183 0.193,-0.16 0.212,-0.135 0.228,-0.107 0.239,-0.077 0.246,-0.047 0.251,-0.016 0.251,0.016 0.246,0.047 0.239,0.077 0.228,0.107 0.212,0.135 0.193,0.16 0.172,0.183 0.148,0.203 0.121,0.22 0.092,0.234 0.063,0.243 0.031,0.249 z"
       id="path3222"
       style="fill:none;stroke:#000000" />
    <path
       d="m 114.47909,-76.219526 -0.031,0.2492 -0.063,0.243201 -0.092,0.2335 -0.121,0.2201 -0.148,0.2032 -0.172,0.1831 -0.193,0.1601 -0.212,0.1346 -0.228,0.1069 -0.239,0.0777 -0.246,0.047 -0.251,0.0158 -0.251,-0.0158 -0.246,-0.047 -0.239,-0.0777 -0.228,-0.1069 -0.212,-0.1346 -0.193,-0.1601 -0.172,-0.1831 -0.148,-0.2032 -0.121,-0.2201 -0.092,-0.2335 -0.063,-0.243201 -0.031,-0.2492 v -0.251199 l 0.031,-0.249201 0.063,-0.2432 0.092,-0.233599 0.121,-0.220101 0.148,-0.203199 0.172,-0.183001 0.193,-0.1601 0.212,-0.1346 0.228,-0.107 0.239,-0.0776 0.246,-0.047 0.251,-0.0158 0.251,0.0158 0.246,0.047 0.239,0.0776 0.228,0.107 0.212,0.1346 0.193,0.1601 0.172,0.183001 0.148,0.203199 0.121,0.220101 0.092,0.233599 0.063,0.2432 0.031,0.249201 z"
       id="path3220"
       style="fill:none;stroke:#000000" />
    <path
       d="m 137.98309,-20.345125 h -2.3876 l -0.1041,0.1432 -0.5587,0.5951 -0.629,0.5203 -0.5629,0.357199 -0.008,0.0134 h -6.5 l -3.25,-5.629201 3.25,-5.6292 h 6.5 l 0.008,0.0134 0.5629,0.3572 0.629,0.5203 0.5587,0.5951 0.1041,0.1432 h 2.3876 z"
       id="path3216"
       style="fill:none;stroke:#000000" />
    <path
       d="m 123.98009,-12.250946 -0.024,0.18689 -0.046,0.18245 -0.07,0.17514 -0.091,0.16507 -0.11,0.1524 -0.129,0.13731 -0.145,0.12008 -0.159,0.10093 -0.171,0.0802 -0.179,0.05822 -0.185,0.03529 -0.188,0.01184 -0.188,-0.01184 -0.185,-0.03529 -0.179,-0.05822 -0.171,-0.0802 -0.159,-0.10093 -0.145,-0.12008 -0.129,-0.13731 -0.11,-0.1524 -0.091,-0.16507 -0.07,-0.17514 -0.046,-0.18245 -0.024,-0.18689 v -0.18838 l 0.024,-0.1869 0.046,-0.1824 0.07,-0.1752 0.091,-0.164999 0.11,-0.1524 0.129,-0.1374 0.145,-0.12 0.159,-0.101 0.171,-0.0802 0.179,-0.0582 0.185,-0.0353 0.188,-0.0118 0.188,0.0118 0.185,0.0353 0.179,0.0582 0.171,0.0802 0.159,0.101 0.145,0.12 0.129,0.1374 0.11,0.1524 0.091,0.164999 0.07,0.1752 0.046,0.1824 0.024,0.1869 z"
       id="path3214"
       style="fill:none;stroke:#000000" />
    <path
       d="m 123.98009,-36.250925 -0.024,0.1869 -0.046,0.1824 -0.07,0.175199 -0.091,0.165 -0.11,0.1524 -0.129,0.1374 -0.145,0.12 -0.159,0.101 -0.171,0.0802 -0.179,0.0582 -0.185,0.0353 -0.188,0.0118 -0.188,-0.0118 -0.185,-0.0353 -0.179,-0.0582 -0.171,-0.0802 -0.159,-0.101 -0.145,-0.12 -0.129,-0.1374 -0.11,-0.1524 -0.091,-0.165 -0.07,-0.175199 -0.046,-0.1824 -0.024,-0.1869 v -0.188401 l 0.024,-0.1869 0.046,-0.1824 0.07,-0.1752 0.091,-0.164999 0.11,-0.1524 0.129,-0.137301 0.145,-0.1201 0.159,-0.101 0.171,-0.0802 0.179,-0.0582 0.185,-0.0353 0.188,-0.0118 0.188,0.0118 0.185,0.0353 0.179,0.0582 0.171,0.0802 0.159,0.101 0.145,0.1201 0.129,0.137301 0.11,0.1524 0.091,0.164999 0.07,0.1752 0.046,0.1824 0.024,0.1869 z"
       id="path3212"
       style="fill:none;stroke:#000000" />
    <path
       d="m 114.47909,-6.2195455 -0.031,0.24918 -0.063,0.24327 -0.092,0.23352 -0.121,0.22009 -0.148,0.2032 -0.172,0.18309 -0.193,0.1601 -0.212,0.13458 -0.228,0.10693 -0.239,0.07762 -0.246,0.04706 -0.251,0.01578 -0.251,-0.01578 -0.246,-0.04706 -0.239,-0.07762 -0.228,-0.10693 -0.212,-0.13458 -0.193,-0.1601 -0.172,-0.18309 -0.148,-0.2032 -0.121,-0.22009 -0.092,-0.23352 -0.063,-0.24327 -0.031,-0.24918 v -0.25118 l 0.031,-0.24917 0.063,-0.24327 0.092,-0.23352 0.121,-0.2201 0.148,-0.2032 0.172,-0.18309 0.193,-0.16009 0.212,-0.13458 0.228,-0.10694 0.239,-0.07762 0.246,-0.04706 0.251,-0.01576 0.251,0.01576 0.246,0.04706 0.239,0.07762 0.228,0.10694 0.212,0.13458 0.193,0.16009 0.172,0.18309 0.148,0.2032 0.121,0.2201 0.092,0.23352 0.063,0.24327 0.031,0.24917 z"
       id="path3210"
       style="fill:none;stroke:#000000" />
    <path
       d="m 114.47909,-42.219526 -0.031,0.2492 -0.063,0.243201 -0.092,0.2336 -0.121,0.2201 -0.148,0.2032 -0.172,0.183 -0.193,0.1601 -0.212,0.1346 -0.228,0.107 -0.239,0.0776 -0.246,0.047 -0.251,0.0158 -0.251,-0.0158 -0.246,-0.047 -0.239,-0.0776 -0.228,-0.107 -0.212,-0.1346 -0.193,-0.1601 -0.172,-0.183 -0.148,-0.2032 -0.121,-0.2201 -0.092,-0.2336 -0.063,-0.243201 -0.031,-0.2492 v -0.251199 l 0.031,-0.249201 0.063,-0.2432 0.092,-0.2335 0.121,-0.2201 0.148,-0.2032 0.172,-0.1831 0.193,-0.1601 0.212,-0.1346 0.228,-0.1069 0.239,-0.0777 0.246,-0.047 0.251,-0.0158 0.251,0.0158 0.246,0.047 0.239,0.0777 0.228,0.1069 0.212,0.1346 0.193,0.1601 0.172,0.1831 0.148,0.2032 0.121,0.2201 0.092,0.2335 0.063,0.2432 0.031,0.249201 z"
       id="path3208"
       style="fill:none;stroke:#000000" />
    <path
       d="m 70.493332,-126.45005 v 2 h -3.5 v -2 z"
       id="path1231"
       style="fill:none;stroke:#000000" />
    <path
       d="m 89.993332,-126.45005 v 2 h -3.5 v -2 z"
       id="path1229"
       style="fill:none;stroke:#000000" />
    <path
       d="m 94.993332,-121.70005 v 14.73085 h -33 v -14.73085 z"
       id="path1227"
       style="fill:none;stroke:#000000" />
    <path
       d="m 70.493332,-104.2192 v 2 h -3.5 v -2 z"
       id="path1225"
       style="fill:none;stroke:#000000" />
    <path
       d="m 89.993332,-104.2192 v 2 h -3.5 v -2 z"
       id="path1223"
       style="fill:none;stroke:#000000" />
    <path
       d="m 60.587533,-102.8316 0.1869,0.0236 0.1824,0.0468 0.175199,0.0694 0.165,0.0907 0.1524,0.1107 0.1374,0.129 0.120001,0.1451 0.101,0.1591 0.0802,0.1704 0.0582,0.1792 0.0353,0.185 0.0118,0.188 -0.0118,0.188 -0.0353,0.185 -0.0582,0.1792 -0.0802,0.1704 -0.101,0.1591 -0.120001,0.1451 -0.1374,0.129 -0.1524,0.1107 -0.165,0.09081 -0.175199,0.0693 -0.1824,0.0468 -0.1869,0.0237 h -0.188401 l -0.1869,-0.0237 -0.182399,-0.0468 -0.175201,-0.0693 -0.164999,-0.09081 -0.1524,-0.1107 -0.1373,-0.129 -0.1201,-0.1451 -0.101001,-0.1591 -0.0802,-0.1704 -0.0582,-0.1792 -0.0353,-0.185 -0.0118,-0.188 0.0118,-0.188 0.0353,-0.185 0.0582,-0.1792 0.0802,-0.1704 0.101001,-0.1591 0.1201,-0.1451 0.1373,-0.129 0.1524,-0.1107 0.164999,-0.0907 0.175201,-0.0694 0.182399,-0.0468 0.1869,-0.0236 z"
       id="path1221"
       style="fill:none;stroke:#000000" />
    <path
       d="m 96.587512,-102.8316 0.18689,0.0236 0.18245,0.0468 0.17514,0.0694 0.16507,0.0907 0.1524,0.1107 0.13731,0.129 0.12008,0.1451 0.10093,0.1591 0.0802,0.1704 0.05822,0.1792 0.03529,0.185 0.01184,0.188 -0.01184,0.188 -0.03529,0.185 -0.05822,0.1792 -0.0802,0.1704 -0.10093,0.1591 -0.12008,0.1451 -0.13731,0.129 -0.1524,0.1107 -0.16507,0.09081 -0.17514,0.0693 -0.18245,0.0468 -0.18689,0.0237 h -0.18837 l -0.18689,-0.0237 -0.18245,-0.0468 -0.17514,-0.0693 -0.16507,-0.09081 -0.15241,-0.1107 -0.13731,-0.129 -0.12007,-0.1451 -0.10094,-0.1591 -0.0802,-0.1704 -0.05821,-0.1792 -0.03529,-0.185 -0.01183,-0.188 0.01183,-0.188 0.03529,-0.185 0.05821,-0.1792 0.0802,-0.1704 0.10094,-0.1591 0.12007,-0.1451 0.13731,-0.129 0.15241,-0.1107 0.16507,-0.0907 0.17514,-0.0694 0.18245,-0.0468 0.18689,-0.0236 z"
       id="path1219"
       style="fill:none;stroke:#000000" />
    <path
       d="m 60.587533,-78.831695 0.1869,0.0237 0.1824,0.0468 0.175199,0.0693 0.165,0.0908 0.1524,0.1107 0.1374,0.129 0.120001,0.1451 0.101,0.1591 0.0802,0.1704 0.0582,0.1792 0.0353,0.185 0.0118,0.188 -0.0118,0.188 -0.0353,0.185 -0.0582,0.1792 -0.0802,0.1704 -0.101,0.1591 -0.120001,0.1451 -0.1374,0.129 -0.1524,0.1107 -0.165,0.0907 -0.175199,0.0694 -0.1824,0.0468 -0.1869,0.0236 h -0.188401 l -0.1869,-0.0236 -0.182399,-0.0468 -0.175201,-0.0694 -0.164999,-0.0907 -0.1524,-0.1107 -0.1373,-0.129 -0.1201,-0.1451 -0.101001,-0.1591 -0.0802,-0.1704 -0.0582,-0.1792 -0.0353,-0.185 -0.0118,-0.188 0.0118,-0.188 0.0353,-0.185 0.0582,-0.1792 0.0802,-0.1704 0.101001,-0.1591 0.1201,-0.1451 0.1373,-0.129 0.1524,-0.1107 0.164999,-0.0908 0.175201,-0.0693 0.182399,-0.0468 0.1869,-0.0237 z"
       id="path1217"
       style="fill:none;stroke:#000000" />
    <path
       d="m 96.587512,-78.831695 0.18689,0.0237 0.18245,0.0468 0.17514,0.0693 0.16507,0.0908 0.1524,0.1107 0.13731,0.129 0.12008,0.1451 0.10093,0.1591 0.0802,0.1704 0.05822,0.1792 0.03529,0.185 0.01184,0.188 -0.01184,0.188 -0.03529,0.185 -0.05822,0.1792 -0.0802,0.1704 -0.10093,0.1591 -0.12008,0.1451 -0.13731,0.129 -0.1524,0.1107 -0.16507,0.0907 -0.17514,0.0694 -0.18245,0.0468 -0.18689,0.0236 h -0.18837 l -0.18689,-0.0236 -0.18245,-0.0468 -0.17514,-0.0694 -0.16507,-0.0907 -0.15241,-0.1107 -0.13731,-0.129 -0.12007,-0.1451 -0.10094,-0.1591 -0.0802,-0.1704 -0.05821,-0.1792 -0.03529,-0.185 -0.01183,-0.188 0.01183,-0.188 0.03529,-0.185 0.05821,-0.1792 0.0802,-0.1704 0.10094,-0.1591 0.12007,-0.1451 0.13731,-0.129 0.15241,-0.1107 0.16507,-0.0908 0.17514,-0.0693 0.18245,-0.0468 0.18689,-0.0237 z"
       id="path1215"
       style="fill:none;stroke:#000000" />
    <path
       d="m 72.743332,-73.584595 v 2 h -3.5 v -2 z"
       id="path1213"
       style="fill:none;stroke:#000000" />
    <path
       d="m 87.743332,-73.584595 v 2 h -3.5 v -2 z"
       id="path1211"
       style="fill:none;stroke:#000000" />
    <path
       d="m 92.493332,-68.834595 v 9 h -28 v -9 z"
       id="path1209"
       style="fill:none;stroke:#000000" />
    <path
       d="m 72.743332,-57.084595 v 2 h -3.5 v -2 z"
       id="path1207"
       style="fill:none;stroke:#000000" />
    <path
       d="m 87.743332,-57.084595 v 2 h -3.5 v -2 z"
       id="path1205"
       style="fill:none;stroke:#000000" />
    <path
       d="m 96.405432,-6.9469551 -0.1744,-0.022 -0.1703,-0.0437 -0.1635,-0.0647 -0.1541,-0.0847 -0.1422,-0.10335 -0.1282,-0.12034 -0.112,-0.13547 -0.0942,-0.14844 -0.0749,-0.15908 -0.0543,-0.16721 -0.033,-0.1727 -0.011,-0.17546 0.011,-0.17546 0.033,-0.1727 0.0543,-0.16721 0.0749,-0.15908 0.0942,-0.14844 0.112,-0.13547 0.1282,-0.12034 0.1422,-0.10335 0.1541,-0.0847 0.1635,-0.0647 0.1703,-0.0437 0.1744,-0.022 h 0.1758 l 0.1744,0.022 0.1703,0.0437 0.1635,0.0647 0.1541,0.0847 0.1422,0.10335 0.1282,0.12034 0.112,0.13547 0.0942,0.14844 0.0749,0.15908 0.0543,0.16721 0.0329,0.1727 0.0111,0.17546 -0.0111,0.17546 -0.0329,0.1727 -0.0543,0.16721 -0.0749,0.15908 -0.0942,0.14844 -0.112,0.13547 -0.1282,0.12034 -0.1422,0.10335 -0.1541,0.0847 -0.1635,0.0647 -0.1703,0.0437 -0.1744,0.022 z"
       id="path2256"
       style="fill:none;stroke:#000000" />
    <path
       d="m 60.405422,-6.9469551 -0.174419,-0.022 -0.170291,-0.0437 -0.16346,-0.0647 -0.154069,-0.0847 -0.14223,-0.10335 -0.128171,-0.12034 -0.112059,-0.13547 -0.09421,-0.14844 -0.07486,-0.15908 -0.05432,-0.16721 -0.03295,-0.1727 -0.01104,-0.17546 0.01104,-0.17546 0.03295,-0.1727 0.05432,-0.16721 0.07486,-0.15908 0.09421,-0.14844 0.112059,-0.13547 0.128171,-0.12034 0.14223,-0.10335 0.154069,-0.0847 0.16346,-0.0647 0.170291,-0.0437 0.174419,-0.022 h 0.175831 l 0.17442,0.022 0.17029,0.0437 0.163469,0.0647 0.154071,0.0847 0.14223,0.10335 0.128169,0.12034 0.11206,0.13547 0.09421,0.14844 0.07486,0.15908 0.05432,0.16721 0.03294,0.1727 0.01105,0.17546 -0.01105,0.17546 -0.03294,0.1727 -0.05432,0.16721 -0.07486,0.15908 -0.09421,0.14844 -0.11206,0.13547 -0.128169,0.12034 -0.14223,0.10335 -0.154071,0.0847 -0.163469,0.0647 -0.17029,0.0437 -0.17442,0.022 z"
       id="path2254"
       style="fill:none;stroke:#000000" />
    <path
       d="m 57.493332,-21.344185 v -10 h 6 v 10 z"
       id="path2252"
       style="fill:none;stroke:#000000" />
    <path
       d="m 93.493332,-21.344185 v -10 h 6 v 10 z"
       id="path2250"
       style="fill:none;stroke:#000000" />
    <path
       d="m 78.399132,-29.347085 -0.1869,-0.0237 -0.1824,-0.0468 -0.1752,-0.0693 -0.165,-0.0908 -0.1524,-0.1107 -0.1373,-0.129 -0.1201,-0.1451 -0.101,-0.1591 -0.0802,-0.1704 -0.0582,-0.1792 -0.0353,-0.185 -0.0118,-0.188 0.0118,-0.188 0.0353,-0.185 0.0582,-0.1792 0.0802,-0.1704 0.101,-0.1591 0.1201,-0.1451 0.1373,-0.129 0.1524,-0.1107 0.165,-0.0907 0.1752,-0.0694 0.1824,-0.0468 0.1869,-0.0236 h 0.1884 l 0.1869,0.0236 0.1824,0.0468 0.1752,0.0694 0.165,0.0907 0.1524,0.1107 0.1373,0.129 0.1201,0.1451 0.101,0.1591 0.0802,0.1704 0.0582,0.1792 0.0353,0.185 0.0118,0.188 -0.0118,0.188 -0.0353,0.185 -0.0582,0.1792 -0.0802,0.1704 -0.101,0.1591 -0.1201,0.1451 -0.1373,0.129 -0.1524,0.1107 -0.165,0.0908 -0.1752,0.0693 -0.1824,0.0468 -0.1869,0.0237 z"
       id="path2248"
       style="fill:none;stroke:#000000" />
    <path
       d="m 73.493332,-34.344185 v -6 h 10 v 6 z"
       id="path2246"
       style="fill:none;stroke:#000000" />
  </g>
</svg>
