<?xml version="1.0" encoding="UTF-8" standalone="no"?>
<!-- Created with Inkscape (http://www.inkscape.org/) -->

<svg
   width="528.00092mm"
   height="270.13583mm"
   viewBox="0 0 528.00092 270.13583"
   version="1.1"
   id="svg6424"
   inkscape:version="1.2 (dc2aedaf03, 2022-05-15)"
   sodipodi:docname="top_case.svg"
   xmlns:inkscape="http://www.inkscape.org/namespaces/inkscape"
   xmlns:sodipodi="http://sodipodi.sourceforge.net/DTD/sodipodi-0.dtd"
   xmlns="http://www.w3.org/2000/svg"
   xmlns:svg="http://www.w3.org/2000/svg">
  <sodipodi:namedview
     id="namedview6426"
     pagecolor="#ffffff"
     bordercolor="#666666"
     borderopacity="1.0"
     inkscape:showpageshadow="2"
     inkscape:pageopacity="0.0"
     inkscape:pagecheckerboard="0"
     inkscape:deskcolor="#d1d1d1"
     inkscape:document-units="mm"
     showgrid="false"
     inkscape:zoom="0.33431191"
     inkscape:cx="1154.6104"
     inkscape:cy="743.31782"
     inkscape:window-width="1366"
     inkscape:window-height="750"
     inkscape:window-x="0"
     inkscape:window-y="0"
     inkscape:window-maximized="1"
     inkscape:current-layer="layer1" />
  <defs
     id="defs6421" />
  <g
     inkscape:label="Layer 1"
     inkscape:groupmode="layer"
     id="layer1"
     transform="translate(296.7208,50.22233)">
    <g
       id="g6860"
       style="vector-effect:non-scaling-stroke;-inkscape-stroke:hairline;stroke-width:0.26458333;stroke-dasharray:none"
       inkscape:label="holes">
      <path
         d="m 195.23366,12.64417 -0.3302,-0.042 -0.3223,-0.083 -0.3094,-0.122 -0.2916,-0.161 -0.2693,-0.195 -0.2426,-0.228 -0.2121,-0.256 -0.1783,-0.281 -0.1417,-0.301 -0.1028,-0.317 -0.062,-0.327 -0.021,-0.332 0.021,-0.332 0.062,-0.327 0.1028,-0.317 0.1417,-0.301 0.1783,-0.281 0.2121,-0.256 0.2426,-0.228 0.2693,-0.195 0.2916,-0.161 0.3094,-0.122 0.3223,-0.083 0.3302,-0.042 h 0.3328 l 0.3302,0.042 0.3223,0.083 0.3094,0.122 0.2917,0.161 0.2692,0.195 0.2426,0.228 0.2121,0.256 0.1783,0.281 0.1417,0.301 0.1029,0.317 0.062,0.327 0.021,0.332 -0.021,0.332 -0.062,0.327 -0.1029,0.317 -0.1417,0.301 -0.1783,0.281 -0.2121,0.256 -0.2426,0.228 -0.2692,0.195 -0.2917,0.161 -0.3094,0.122 -0.3223,0.083 -0.3302,0.042 z"
         id="path13965"
         style="display:inline;fill:none;stroke:#aa4400;stroke-width:0.26458333;stroke-miterlimit:4;stroke-dasharray:none;vector-effect:non-scaling-stroke;-inkscape-stroke:hairline" />
      <circle
         style="display:inline;fill:none;stroke:#aa4400;stroke-width:0.26458333;stroke-miterlimit:4;stroke-dasharray:none;vector-effect:non-scaling-stroke;-inkscape-stroke:hairline"
         id="circle13967"
         cx="-184.40009"
         cy="-31.523222"
         r="2.5"
         transform="scale(-1)" />
      <path
         style="display:inline;fill:none;stroke:#aa4400;stroke-width:0.26458333;stroke-miterlimit:4;stroke-dasharray:none;vector-effect:non-scaling-stroke;-inkscape-stroke:hairline"
         d="m 119.2861,19.02332 h 5.9996 v 9.9999 h -5.9996 z"
         id="path16317" />
      <path
         style="display:inline;fill:none;stroke:#aa4400;stroke-width:0.26458333;stroke-miterlimit:4;stroke-dasharray:none;vector-effect:non-scaling-stroke;-inkscape-stroke:hairline"
         d="m 119.2861,-0.97701 h 5.9996 V 9.02341 h -5.9996 z"
         id="path16313" />
      <path
         d="m 122.3895,12.3761 0.2056,0.026 0.2007,0.052 0.1926,0.076 0.1816,0.1 0.1676,0.122 0.1511,0.141 0.1321,0.16 0.111,0.175 0.088,0.188 0.064,0.197 0.039,0.203 0.013,0.207 -0.013,0.207 -0.039,0.203 -0.064,0.197 -0.088,0.188 -0.111,0.175 -0.1321,0.16 -0.1511,0.141 -0.1676,0.122 -0.1816,0.1 -0.1926,0.076 -0.2007,0.052 -0.2056,0.026 h -0.2072 l -0.2056,-0.026 -0.2007,-0.052 -0.1926,-0.076 -0.1816,-0.1 -0.1677,-0.122 -0.151,-0.141 -0.1321,-0.16 -0.111,-0.175 -0.088,-0.188 -0.064,-0.197 -0.039,-0.203 -0.013,-0.207 0.013,-0.207 0.039,-0.203 0.064,-0.197 0.088,-0.188 0.111,-0.175 0.1321,-0.16 0.151,-0.141 0.1677,-0.122 0.1816,-0.1 0.1926,-0.076 0.2007,-0.052 0.2056,-0.026 z"
         id="path13969"
         style="display:inline;fill:none;stroke:#aa4400;stroke-width:0.26458333;stroke-miterlimit:4;stroke-dasharray:none;vector-effect:non-scaling-stroke;-inkscape-stroke:hairline" />
      <path
         d="m -260.66709,12.64417 0.3302,-0.042 0.3223,-0.083 0.3094,-0.122 0.29165,-0.161 0.2693,-0.195 0.2426,-0.228 0.2121,-0.256 0.1783,-0.281 0.1417,-0.301 0.1028,-0.317 0.062,-0.327 0.021,-0.332 -0.021,-0.332 -0.062,-0.327 -0.1028,-0.317 -0.1417,-0.301 -0.1783,-0.281 -0.2121,-0.256 -0.2426,-0.228 -0.2693,-0.195 -0.29165,-0.161 -0.3094,-0.122 -0.3223,-0.083 -0.3302,-0.042 h -0.3328 l -0.3302,0.042 -0.3223,0.083 -0.3094,0.122 -0.2917,0.161 -0.2692,0.195 -0.2426,0.228 -0.2121,0.256 -0.1783,0.281 -0.1417,0.301 -0.1029,0.317 -0.0623,0.327 -0.0209,0.332 0.0209,0.332 0.0623,0.327 0.1029,0.317 0.1417,0.301 0.1783,0.281 0.2121,0.256 0.2426,0.228 0.2692,0.195 0.2917,0.161 0.3094,0.122 0.3223,0.083 0.3302,0.042 z"
         id="path13965-2"
         style="display:inline;fill:none;stroke:#aa4400;stroke-width:0.26458333;stroke-miterlimit:4;stroke-dasharray:none;vector-effect:non-scaling-stroke;-inkscape-stroke:hairline" />
      <circle
         style="display:inline;fill:none;stroke:#aa4400;stroke-width:0.26458333;stroke-miterlimit:4;stroke-dasharray:none;vector-effect:non-scaling-stroke;-inkscape-stroke:hairline"
         id="circle13967-0"
         cx="-249.83356"
         cy="-31.523212"
         r="2.5"
         transform="scale(1,-1)" />
      <path
         d="m -227.614,61.55013 0.2056,0.026 0.2007,0.052 0.1926,0.076 0.1816,0.1 0.1676,0.122 0.1512,0.141 0.1321,0.16 0.111,0.175 0.088,0.188 0.064,0.197 0.039,0.203 0.013,0.207 -0.013,0.207 -0.039,0.203 -0.064,0.197 -0.088,0.188 -0.111,0.175 -0.1321,0.16 -0.1512,0.141 -0.1676,0.122 -0.1816,0.1 -0.1926,0.076 -0.2007,0.052 -0.2056,0.026 h -0.2072 l -0.2056,-0.026 -0.2007,-0.052 -0.1926,-0.076 -0.1816,-0.1 -0.1677,-0.122 -0.151,-0.141 -0.1321,-0.16 -0.111,-0.175 -0.088,-0.188 -0.064,-0.197 -0.039,-0.203 -0.013,-0.207 0.013,-0.207 0.039,-0.203 0.064,-0.197 0.088,-0.188 0.111,-0.175 0.1321,-0.16 0.151,-0.141 0.1677,-0.122 0.1816,-0.1 0.1926,-0.076 0.2007,-0.052 0.2056,-0.026 z"
         id="path13971-8"
         style="display:inline;fill:none;stroke:#aa4400;stroke-width:0.26458333;stroke-miterlimit:4;stroke-dasharray:none;vector-effect:non-scaling-stroke;-inkscape-stroke:hairline" />
      <path
         d="m -202.7184,60.19647 v 6 l -19.9998,1.5e-4 v -6 z"
         id="path13973-9"
         style="display:inline;fill:none;stroke:#aa4400;stroke-width:0.26458333;stroke-miterlimit:4;stroke-dasharray:none;vector-effect:non-scaling-stroke;-inkscape-stroke:hairline"
         sodipodi:nodetypes="ccccc" />
      <path
         d="m -232.7176,60.19647 v 6 l -44.99981,6.6e-4 v -6 z"
         id="path13975-2"
         style="display:inline;fill:none;stroke:#aa4400;stroke-width:0.26458333;stroke-miterlimit:4;stroke-dasharray:none;vector-effect:non-scaling-stroke;-inkscape-stroke:hairline"
         sodipodi:nodetypes="ccccc" />
      <path
         d="m -273.33345,69.19713 v 4 h -3 v -4 z"
         id="path13977-6"
         style="display:inline;fill:none;stroke:#aa4400;stroke-width:0.26458333;stroke-miterlimit:4;stroke-dasharray:none;vector-effect:non-scaling-stroke;-inkscape-stroke:hairline" />
      <path
         d="m -265.33345,69.19713 v 4 h -3 v -4 z"
         id="path13979-6"
         style="display:inline;fill:none;stroke:#aa4400;stroke-width:0.26458333;stroke-miterlimit:4;stroke-dasharray:none;vector-effect:non-scaling-stroke;-inkscape-stroke:hairline" />
      <path
         style="display:inline;fill:none;stroke:#aa4400;stroke-width:0.26458333;stroke-miterlimit:4;stroke-dasharray:none;vector-effect:non-scaling-stroke;-inkscape-stroke:hairline"
         d="m -184.727,19.02332 h -5.9997 v 9.9999 h 5.9997 z"
         id="path40197" />
      <path
         style="display:inline;fill:none;stroke:#aa4400;stroke-width:0.26458333;stroke-miterlimit:4;stroke-dasharray:none;vector-effect:non-scaling-stroke;-inkscape-stroke:hairline"
         d="m -184.727,-0.97701 h -5.9997 V 9.02341 h 5.9997 z"
         id="path40199" />
      <path
         d="m -187.8305,12.3761 -0.2056,0.026 -0.2007,0.052 -0.1926,0.076 -0.1816,0.1 -0.1676,0.122 -0.1511,0.141 -0.1321,0.16 -0.111,0.175 -0.088,0.188 -0.064,0.197 -0.039,0.203 -0.013,0.207 0.013,0.207 0.039,0.203 0.064,0.197 0.088,0.188 0.111,0.175 0.1321,0.16 0.1511,0.141 0.1676,0.122 0.1816,0.1 0.1926,0.076 0.2007,0.052 0.2056,0.026 h 0.2072 l 0.2056,-0.026 0.2007,-0.052 0.1926,-0.076 0.1816,-0.1 0.1677,-0.122 0.151,-0.141 0.1321,-0.16 0.111,-0.175 0.088,-0.188 0.064,-0.197 0.039,-0.203 0.013,-0.207 -0.013,-0.207 -0.039,-0.203 -0.064,-0.197 -0.088,-0.188 -0.111,-0.175 -0.1321,-0.16 -0.151,-0.141 -0.1677,-0.122 -0.1816,-0.1 -0.1926,-0.076 -0.2007,-0.052 -0.2056,-0.026 z"
         id="path40201"
         style="display:inline;fill:none;stroke:#aa4400;stroke-width:0.26458333;stroke-miterlimit:4;stroke-dasharray:none;vector-effect:non-scaling-stroke;-inkscape-stroke:hairline" />
      <rect
         style="fill:none;stroke:#aa4400;stroke-width:0.26458333;stroke-dasharray:none;vector-effect:non-scaling-stroke;-inkscape-stroke:hairline"
         id="rect18070"
         width="80.000336"
         height="6.0001502"
         x="-72.720657"
         y="60.196465" />
      <path
         d="m 162.1836,61.55013 -0.2056,0.026 -0.2007,0.052 -0.1926,0.076 -0.1816,0.1 -0.1676,0.122 -0.1512,0.141 -0.1321,0.16 -0.111,0.175 -0.088,0.188 -0.064,0.197 -0.039,0.203 -0.013,0.207 0.013,0.207 0.039,0.203 0.064,0.197 0.088,0.188 0.111,0.175 0.1321,0.16 0.1512,0.141 0.1676,0.122 0.1816,0.1 0.1926,0.076 0.2007,0.052 0.2056,0.026 h 0.2072 l 0.2056,-0.026 0.2007,-0.052 0.1926,-0.076 0.1816,-0.1 0.1677,-0.122 0.151,-0.141 0.1321,-0.16 0.111,-0.175 0.088,-0.188 0.064,-0.197 0.039,-0.203 0.013,-0.207 -0.013,-0.207 -0.039,-0.203 -0.064,-0.197 -0.088,-0.188 -0.111,-0.175 -0.1321,-0.16 -0.151,-0.141 -0.1677,-0.122 -0.1816,-0.1 -0.1926,-0.076 -0.2007,-0.052 -0.2056,-0.026 z"
         id="path18085"
         style="display:inline;fill:none;stroke:#aa4400;stroke-width:0.26458333;stroke-miterlimit:4;stroke-dasharray:none;vector-effect:non-scaling-stroke;-inkscape-stroke:hairline" />
      <path
         d="m 137.288,60.19647 v 6 l 19.9998,1.5e-4 v -6 z"
         id="path18087"
         style="display:inline;fill:none;stroke:#aa4400;stroke-width:0.26458333;stroke-miterlimit:4;stroke-dasharray:none;vector-effect:non-scaling-stroke;-inkscape-stroke:hairline"
         sodipodi:nodetypes="ccccc" />
      <path
         d="m 167.2872,60.19647 v 6 l 44.99981,6.6e-4 v -6 z"
         id="path18089"
         style="display:inline;fill:none;stroke:#aa4400;stroke-width:0.26458333;stroke-miterlimit:4;stroke-dasharray:none;vector-effect:non-scaling-stroke;-inkscape-stroke:hairline"
         sodipodi:nodetypes="ccccc" />
      <path
         d="m 207.90305,69.19713 v 4 h 3 v -4 z"
         id="path18091"
         style="display:inline;fill:none;stroke:#aa4400;stroke-width:0.26458333;stroke-miterlimit:4;stroke-dasharray:none;vector-effect:non-scaling-stroke;-inkscape-stroke:hairline" />
      <path
         d="m 199.90305,69.19713 v 4 h 3 v -4 z"
         id="path18093"
         style="display:inline;fill:none;stroke:#aa4400;stroke-width:0.26458333;stroke-miterlimit:4;stroke-dasharray:none;vector-effect:non-scaling-stroke;-inkscape-stroke:hairline" />
      <rect
         style="fill:none;stroke:#aa4400;stroke-width:0.26458333;stroke-dasharray:none;vector-effect:non-scaling-stroke;-inkscape-stroke:hairline"
         id="rect28877"
         width="44.999798"
         height="6"
         x="-277.71716"
         y="-44.223103" />
      <rect
         style="fill:none;stroke:#aa4400;stroke-width:0.26458333;stroke-dasharray:none;vector-effect:non-scaling-stroke;-inkscape-stroke:hairline"
         id="rect28879"
         width="30.000023"
         height="6.0000019"
         x="-222.71802"
         y="-44.223103" />
      <rect
         style="fill:none;stroke:#aa4400;stroke-width:0.26458333;stroke-dasharray:none;vector-effect:non-scaling-stroke;-inkscape-stroke:hairline"
         id="rect28881"
         width="80.000275"
         height="6.0000019"
         x="-72.720398"
         y="-44.223103" />
      <rect
         style="fill:none;stroke:#aa4400;stroke-width:0.26458333;stroke-dasharray:none;vector-effect:non-scaling-stroke;-inkscape-stroke:hairline"
         id="rect28883"
         width="30.000023"
         height="6"
         x="127.2774"
         y="-44.223103" />
      <rect
         style="fill:none;stroke:#aa4400;stroke-width:0.26458333;stroke-dasharray:none;vector-effect:non-scaling-stroke;-inkscape-stroke:hairline"
         id="rect28885"
         width="44.999886"
         height="6.0005116"
         x="167.27679"
         y="-44.223103" />
      <circle
         style="fill:none;stroke:#aa4400;stroke-width:0.26458333;stroke-dasharray:none;vector-effect:non-scaling-stroke;-inkscape-stroke:hairline"
         id="path28887"
         cx="-227.71747"
         cy="-41.223103"
         r="1.5" />
      <circle
         style="fill:none;stroke:#aa4400;stroke-width:0.26458333;stroke-dasharray:none;vector-effect:non-scaling-stroke;-inkscape-stroke:hairline"
         id="circle28891"
         cx="162.27716"
         cy="-41.222843"
         r="1.5" />
      <rect
         style="fill:none;stroke:#e9afaf;stroke-width:0.26458333;stroke-dasharray:none;vector-effect:non-scaling-stroke;-inkscape-stroke:hairline"
         id="rect21322"
         width="5.9996338"
         height="9.9999046"
         x="119.27694"
         y="96.413574" />
      <path
         d="m 122.3757,109.7662 0.2056,0.026 0.2007,0.052 0.1926,0.076 0.1816,0.1 0.1676,0.12201 0.1511,0.141 0.1321,0.15999 0.111,0.17501 0.088,0.188 0.064,0.197 0.039,0.203 0.013,0.20699 -0.013,0.207 -0.039,0.203 -0.064,0.197 -0.088,0.188 -0.111,0.17501 -0.1321,0.15999 -0.1511,0.141 -0.1676,0.12201 -0.1816,0.1 -0.1926,0.076 -0.2007,0.052 -0.2056,0.026 h -0.2072 l -0.2056,-0.026 -0.2007,-0.052 -0.1926,-0.076 -0.1816,-0.1 -0.1677,-0.12201 -0.151,-0.141 -0.1321,-0.15999 -0.111,-0.17501 -0.088,-0.188 -0.064,-0.197 -0.039,-0.203 -0.013,-0.207 0.013,-0.20699 0.039,-0.203 0.064,-0.197 0.088,-0.188 0.111,-0.17501 0.1321,-0.15999 0.151,-0.141 0.1677,-0.12201 0.1816,-0.1 0.1926,-0.076 0.2007,-0.052 0.2056,-0.026 z"
         id="path21332"
         style="fill:none;stroke:#e9afaf;stroke-width:0.26458333;stroke-miterlimit:4;stroke-dasharray:none;vector-effect:non-scaling-stroke;-inkscape-stroke:hairline" />
      <rect
         style="fill:none;stroke:#e9afaf;stroke-width:0.26458333;stroke-dasharray:none;vector-effect:non-scaling-stroke;-inkscape-stroke:hairline"
         id="rect21334"
         width="5.9996338"
         height="9.9999046"
         x="184.71829"
         y="96.413574"
         transform="scale(-1,1)" />
      <path
         d="m -187.81703,109.7662 -0.2056,0.026 -0.2007,0.052 -0.19259,0.076 -0.18161,0.1 -0.16759,0.12201 -0.15111,0.141 -0.1321,0.15999 -0.111,0.17501 -0.0882,0.188 -0.0641,0.197 -0.0388,0.203 -0.013,0.20699 0.013,0.207 0.0388,0.203 0.0641,0.197 0.0882,0.188 0.111,0.17501 0.1321,0.15999 0.15111,0.141 0.16759,0.12201 0.18161,0.1 0.19259,0.076 0.2007,0.052 0.2056,0.026 h 0.2072 l 0.2056,-0.026 0.20071,-0.052 0.19259,-0.076 0.1816,-0.1 0.16771,-0.12201 0.15099,-0.141 0.1321,-0.15999 0.111,-0.17501 0.0882,-0.188 0.0641,-0.197 0.0388,-0.203 0.013,-0.207 -0.013,-0.20699 -0.0388,-0.203 -0.0641,-0.197 -0.0882,-0.188 -0.111,-0.17501 -0.1321,-0.15999 -0.15099,-0.141 -0.16771,-0.12201 -0.1816,-0.1 -0.19259,-0.076 -0.20071,-0.052 -0.2056,-0.026 z"
         id="path21338"
         style="fill:none;stroke:#e9afaf;stroke-width:0.26458333;stroke-miterlimit:4;stroke-dasharray:none;vector-effect:non-scaling-stroke;-inkscape-stroke:hairline" />
      <rect
         style="fill:none;stroke:#e9afaf;stroke-width:0.26458333;stroke-dasharray:none;vector-effect:non-scaling-stroke;-inkscape-stroke:hairline"
         id="rect23026"
         width="5.9996338"
         height="15"
         x="-190.71793"
         y="116.41338" />
      <rect
         style="fill:none;stroke:#e9afaf;stroke-width:0.26458333;stroke-dasharray:none;vector-effect:non-scaling-stroke;-inkscape-stroke:hairline"
         id="rect23028"
         width="5.9996338"
         height="15"
         x="119.27694"
         y="116.41338" />
      <path
         d="m -270.5853,166.90572 0.499,-0.063 0.486,-0.125 0.467,-0.185 0.44,-0.242 0.407,-0.295 0.366,-0.344 0.32,-0.387 0.269,-0.424 0.214,-0.454 0.155,-0.478 0.094,-0.494 0.032,-0.501 -0.032,-0.501 -0.094,-0.494 -0.155,-0.477 -0.214,-0.455 -0.269,-0.424 -0.32,-0.387 -0.366,-0.344 -0.407,-0.295 -0.44,-0.242 -0.467,-0.185 -0.486,-0.125 -0.499,-0.063 h -0.502 l -0.499,0.063 -0.486,0.125 -0.467,0.185 -0.44,0.242 -0.407,0.295 -0.366,0.344 -0.32,0.387 -0.269,0.424 -0.214,0.455 -0.155,0.477 -0.094,0.494 -0.032,0.501 0.032,0.501 0.094,0.494 0.155,0.478 0.214,0.454 0.269,0.424 0.32,0.387 0.366,0.344 0.407,0.295 0.44,0.242 0.467,0.185 0.486,0.125 0.499,0.063 z"
         id="path25527"
         style="fill:none;stroke:#ff7f2a;stroke-width:0.26458333;stroke-miterlimit:4;stroke-dasharray:none;vector-effect:non-scaling-stroke;-inkscape-stroke:hairline" />
      <rect
         style="fill:none;stroke:#ff7f2a;stroke-width:0.26458333;stroke-dasharray:none;vector-effect:non-scaling-stroke;-inkscape-stroke:hairline"
         id="rect25531"
         width="15"
         height="15"
         x="-285.72049"
         y="189.91357"
         rx="2"
         ry="2" />
      <rect
         style="fill:none;stroke:#ff7f2a;stroke-width:0.26458333;stroke-dasharray:none;vector-effect:non-scaling-stroke;-inkscape-stroke:hairline"
         id="rect28713"
         width="5.9996338"
         height="9.9999046"
         x="119.27684"
         y="168.41396" />
      <rect
         style="fill:none;stroke:#ff7f2a;stroke-width:0.26458333;stroke-dasharray:none;vector-effect:non-scaling-stroke;-inkscape-stroke:hairline"
         id="rect28713-7"
         width="5.9996338"
         height="9.9999046"
         x="119.27684"
         y="188.41377" />
      <path
         d="m 205.1407,166.90572 -0.499,-0.063 -0.486,-0.125 -0.467,-0.185 -0.44,-0.242 -0.407,-0.295 -0.366,-0.344 -0.32,-0.387 -0.269,-0.424 -0.214,-0.454 -0.155,-0.478 -0.094,-0.494 -0.032,-0.501 0.032,-0.501 0.094,-0.494 0.155,-0.477 0.214,-0.455 0.269,-0.424 0.32,-0.387 0.366,-0.344 0.407,-0.295 0.44,-0.242 0.467,-0.185 0.486,-0.125 0.499,-0.063 h 0.502 l 0.499,0.063 0.486,0.125 0.467,0.185 0.44,0.242 0.407,0.295 0.366,0.344 0.32,0.387 0.269,0.424 0.214,0.455 0.155,0.477 0.094,0.494 0.032,0.501 -0.032,0.501 -0.094,0.494 -0.155,0.478 -0.214,0.454 -0.269,0.424 -0.32,0.387 -0.366,0.344 -0.407,0.295 -0.44,0.242 -0.467,0.185 -0.486,0.125 -0.499,0.063 z"
         id="path29635-3"
         style="fill:none;stroke:#ff7f2a;stroke-width:0.26458333;stroke-miterlimit:4;stroke-dasharray:none;vector-effect:non-scaling-stroke;-inkscape-stroke:hairline" />
      <rect
         style="fill:none;stroke:#ff7f2a;stroke-width:0.26458333;stroke-dasharray:none;vector-effect:non-scaling-stroke;-inkscape-stroke:hairline"
         id="rect6866-2-4"
         width="15"
         height="15"
         x="-220.27928"
         y="189.91357"
         rx="2"
         ry="2"
         transform="scale(-1,1)" />
      <path
         d="m 122.3756,181.76659 0.2056,0.026 0.2007,0.052 0.1926,0.076 0.1816,0.1 0.1676,0.12201 0.1511,0.141 0.1321,0.15999 0.111,0.17501 0.088,0.188 0.064,0.197 0.039,0.203 0.013,0.20699 -0.013,0.207 -0.039,0.203 -0.064,0.197 -0.088,0.188 -0.111,0.17501 -0.1321,0.15999 -0.1511,0.141 -0.1676,0.12201 -0.1816,0.1 -0.1926,0.076 -0.2007,0.052 -0.2056,0.026 h -0.2072 l -0.2056,-0.026 -0.2007,-0.052 -0.1926,-0.076 -0.1816,-0.1 -0.1677,-0.12201 -0.151,-0.141 -0.1321,-0.15999 -0.111,-0.17501 -0.088,-0.188 -0.064,-0.197 -0.039,-0.203 -0.013,-0.207 0.013,-0.20699 0.039,-0.203 0.064,-0.197 0.088,-0.188 0.111,-0.17501 0.1321,-0.15999 0.151,-0.141 0.1677,-0.12201 0.1816,-0.1 0.1926,-0.076 0.2007,-0.052 0.2056,-0.026 z"
         id="path29645-1"
         style="fill:none;stroke:#ff7f2a;stroke-width:0.26458333;stroke-miterlimit:4;stroke-dasharray:none;vector-effect:non-scaling-stroke;-inkscape-stroke:hairline" />
      <rect
         style="fill:none;stroke:#ff7f2a;stroke-width:0.26458333;stroke-dasharray:none;vector-effect:non-scaling-stroke;-inkscape-stroke:hairline"
         id="rect35596"
         width="5.9996338"
         height="9.9999046"
         x="184.7184"
         y="168.41396"
         transform="scale(-1,1)" />
      <rect
         style="fill:none;stroke:#ff7f2a;stroke-width:0.26458333;stroke-dasharray:none;vector-effect:non-scaling-stroke;-inkscape-stroke:hairline"
         id="rect35598"
         width="5.9996338"
         height="9.9999046"
         x="184.7184"
         y="188.41377"
         transform="scale(-1,1)" />
      <path
         d="m -187.81713,181.76659 -0.2056,0.026 -0.2007,0.052 -0.19259,0.076 -0.18161,0.1 -0.16759,0.12201 -0.15111,0.141 -0.1321,0.15999 -0.111,0.17501 -0.0882,0.188 -0.0641,0.197 -0.0388,0.203 -0.013,0.20699 0.013,0.207 0.0388,0.203 0.0641,0.197 0.0882,0.188 0.111,0.17501 0.1321,0.15999 0.15111,0.141 0.16759,0.12201 0.18161,0.1 0.19259,0.076 0.2007,0.052 0.2056,0.026 h 0.2072 l 0.2056,-0.026 0.20071,-0.052 0.19259,-0.076 0.1816,-0.1 0.16771,-0.12201 0.15099,-0.141 0.1321,-0.15999 0.111,-0.17501 0.0882,-0.188 0.0641,-0.197 0.0388,-0.203 0.013,-0.207 -0.013,-0.20699 -0.0388,-0.203 -0.0641,-0.197 -0.0882,-0.188 -0.111,-0.17501 -0.1321,-0.15999 -0.15099,-0.141 -0.16771,-0.12201 -0.1816,-0.1 -0.19259,-0.076 -0.20071,-0.052 -0.2056,-0.026 z"
         id="path35606"
         style="fill:none;stroke:#ff7f2a;stroke-width:0.26458333;stroke-miterlimit:4;stroke-dasharray:none;vector-effect:non-scaling-stroke;-inkscape-stroke:hairline" />
    </g>
    <g
       id="g7228"
       inkscape:label="outlines"
       style="vector-effect:non-scaling-stroke;-inkscape-stroke:hairline;stroke-width:0.26458333;stroke-dasharray:none">
      <path
         id="rect51797"
         style="vector-effect:non-scaling-stroke;fill:none;stroke:#aa4400;stroke-width:0.26458333;stroke-dasharray:none;-inkscape-stroke:hairline"
         d="m -290.72006,-50.22233 v 38.06745 h -6.00015 v 50.00005 h 6.00015 V 75.91261 H 225.2795 V 37.84517 h 6.0001 v -50.00005 h -6.0001 v -38.06745 z" />
      <path
         id="path6707-3"
         style="vector-effect:non-scaling-stroke;fill:none;stroke:#e9afaf;stroke-width:0.26458333;stroke-miterlimit:4;stroke-dasharray:none;-inkscape-stroke:hairline"
         d="m 225.27991,131.41715 h 6.0002 v -15.00012 h -6.0002 v -3.34966 h -6.0999 v 1.37097 h -3.4003 v -1.37097 h -4.9997 v -3.30058 h 4.9997 v -1.37046 h 3.4003 v 1.37046 h 6.0999 v -3.34915 h 6.0002 V 91.41751 h -6.0002 v -6.49624 l -13.0034,-0.008 v -6.00015 l -44.9998,-5.1e-4 v 6.00015 h -3.3497 v 6.09988 h 1.371 v 3.40031 h -1.371 v 4.9997 h -3.3005 v -4.9997 h -1.3705 v -3.40031 h 1.3705 v -6.09988 h -3.3492 v -6.00015 h -30 v 6.00015 h -5.116 -80.1777 -34.7038 v -6.00015 h -80.00033 v 6.00015 h -9.69708 -25.00674 -80.17727 -5.11649 v -6.00015 h -29.99998 v 6.00015 h -3.34915 v 6.09988 h 1.37046 v 3.40031 h -1.37046 v 4.9997 h -3.30057 v -4.9997 h -1.37098 v -3.40031 h 1.37098 v -6.09988 h -3.34967 v -6.00015 l -44.99984,5.1e-4 v 6.00015 l -13.00334,0.008 v 6.49624 h -6.00015 v 15.00013 h 6.00015 v 3.34915 h 6.09988 v -1.37046 h 3.40031 v 1.37046 h 4.9997 v 3.30058 h -4.9997 v 1.37097 h -3.40031 v -1.37097 h -6.09988 v 3.34966 h -6.00015 v 15.00012 h 6.00015 v 6.50399 l 23.00334,-0.008 v 9.99991 h 5.00021 24.99942 v -9.99991 h 5.00021 3.35018 v -6.09989 h -1.37097 v -3.39979 h 1.37097 v -5.00021 h 3.30006 v 5.00021 h 1.37098 v 3.39979 h -1.37098 v 6.09989 h 3.34967 5.00021 v 9.99991 h 34.99993 4.99969 v -9.99991 h 7.00061 63.29278 25.00674 19.69699 v 9.99991 h 60.00052 v -9.99991 h 7.3923 37.3114 63.2928 7.0006 v 9.99991 h 4.9997 34.9999 v -9.99991 h 5.0002 3.3497 v -6.09989 h -1.371 v -3.39979 h 1.371 v -5.00021 h 3.3 v 5.00021 h 1.371 v 3.39979 h -1.371 v 6.09989 h 3.3502 5.0002 v 9.99991 h 24.9994 5.0002 v -9.99991 l 23.0034,0.008 z"
         sodipodi:nodetypes="cccccccccccccccccccccccccccccccccccccccccccccccccccccccccccccccccccccccccccccccccccccccccccccccccccccccccccccccccccccccccccccccccccccccccccccccccccccccc" />
      <path
         id="path5079"
         style="fill:none;stroke:#ff7f2a;stroke-width:0.26458333;stroke-miterlimit:4;stroke-dasharray:none;vector-effect:non-scaling-stroke;-inkscape-stroke:hairline"
         d="m -232.71744,150.91306 -44.99984,5.2e-4 v 6.00015 l -13.00334,0.008 v 6.49624 h -6.00015 v 15.00012 h 6.00015 v 3.34915 h 6.09988 v -1.37046 h 3.40031 v 1.37046 h 4.9997 v 3.30058 h -4.9997 v 1.37097 h -3.40031 v -1.37097 h -6.09988 v 3.34966 h -6.00015 v 15.00012 h 6.00015 v 6.504 l 13.00334,-0.008 v 9.99991 h 5.00021 34.99941 v -9.99991 h 5.00022 3.35018 v -6.09988 h -1.37098 v -3.39979 h 1.37098 v -5.00022 h 3.30006 v 5.00022 h 1.37097 v 3.39979 h -1.37097 v 6.09988 h 3.34966 5.00021 v 9.99991 h 34.99993 4.9997 v -9.99991 h 7.00061 63.29277 25.006745 19.696985 9.99991 v 9.99991 h 50.00057 v -9.99991 h 7.39231 37.31142 63.29277 7.00061 v 9.99991 h 4.9997 34.99993 v -9.99991 h 5.00021 3.34966 v -6.09988 h -1.37097 v -3.39979 h 1.37097 v -5.00022 h 3.30006 v 5.00022 h 1.37098 v 3.39979 h -1.37098 v 6.09988 h 3.35018 5.00022 v 9.99991 h 34.99941 5.00021 v -9.99991 l 13.00334,0.008 v -6.50348 -2.49649 h 6.00015 v -12.50415 h -6.00015 v -3.34915 h -6.09988 v 1.37098 h -3.40031 v -1.37098 h -4.9997 v -3.30109 h 4.9997 v -1.37046 h 3.40031 v 1.37046 h 6.09988 v -3.34915 h 6.00015 v -12.49588 h -6.00015 v -2.50424 -6.49624 l -13.00334,-0.008 v -6.00015 l -44.99984,-5.2e-4 v 6.00015 h -3.34966 v 6.09989 h 1.37097 v 3.40031 h -1.37097 v 4.99969 h -3.30058 v -4.99969 h -1.37045 v -3.40031 h 1.37045 v -6.09989 h -3.34914 v -6.00015 h -20.00033 v 6.00015 H 132.16106 41.98362 7.27979 v -6.00015 h -80.000282 v 6.00015 h -9.697083 -25.006745 -90.17744 -5.11648 v -6.00015 h -19.99981 v 6.00015 h -3.34915 v 6.09989 h 1.37045 v 3.40031 h -1.37045 v 4.99969 h -3.30058 v -4.99969 h -1.37097 v -3.40031 h 1.37097 v -6.09989 h -3.34966 z" />
    </g>
  </g>
</svg>
